STARTFONT 2.1
COMMENT Product Version MAUI VERSION
COMMENT  Product Version MAUI VERSION
FONTBOUNDINGBOX 30 30 0 -3 
STARTPROPERTIES 2
FONT_ASCENT 30
FONT_DESCENT 0
ENDPROPERTIES
CHARS 266
STARTCHAR 33
ENCODING 33
SWIDTH 520 0 
DWIDTH 5 0
BBX 5 30 0 -3
BITMAP
00
00
00
00
00
00
F0
F0
F0
F0
F0
F0
F0
F0
F0
F0
F0
F0
F0
F0
F0
F0
00
00
F0
F0
F0
F0
00
00
ENDCHAR
STARTCHAR 34
ENCODING 34
SWIDTH 520 0 
DWIDTH 12 0
BBX 12 30 0 -3
BITMAP
0000
3870
78F0
60C0
C180
C180
F1E0
F1E0
F1E0
F1E0
0000
0000
0000
0000
0000
0000
0000
0000
0000
0000
0000
0000
0000
0000
0000
0000
0000
0000
0000
0000
ENDCHAR
STARTCHAR 35
ENCODING 35
SWIDTH 520 0 
DWIDTH 17 0
BBX 17 30 0 -3
BITMAP
000000
000000
038700
038700
078F00
070E00
070E00
070E00
FFFF80
FFFF80
FFFF80
0E1C00
0E1C00
1C3800
1C3800
FFFF80
FFFF80
FFFF80
387000
387000
387000
78F000
70E000
70E000
000000
000000
000000
000000
000000
000000
ENDCHAR
STARTCHAR 36
ENCODING 36
SWIDTH 520 0 
DWIDTH 14 0
BBX 14 30 0 -3
BITMAP
0000
0300
0300
0FC0
3FF0
7FF8
7B7C
F33C
F33C
F300
FB00
FF00
7FC0
3FF0
1FF8
03FC
037C
033C
F33C
F33C
F33C
7B78
7FF8
3FF0
0FC0
0300
0300
0300
0000
0000
ENDCHAR
STARTCHAR 37
ENCODING 37
SWIDTH 520 0 
DWIDTH 23 0
BBX 23 30 0 -3
BITMAP
000000
000000
3E01C0
7F01C0
F78380
E38380
E38700
E38700
E38700
E38E00
F78E00
7F1C00
3E1C00
003800
0038F8
0071FC
0073DE
00E38E
00E38E
01C38E
01C38E
03838E
0383DE
0701FC
0700F8
000000
000000
000000
000000
000000
ENDCHAR
STARTCHAR 38
ENCODING 38
SWIDTH 520 0 
DWIDTH 20 0
BBX 20 30 0 -3
BITMAP
000000
000000
07F000
0FF800
1FFC00
3E3E00
3C1E00
3C1E00
3E3E00
1F7C00
0FF800
07F000
1FE000
3FF000
7DF9C0
F8FBC0
F07FC0
F03FC0
F01F80
F01F80
787FE0
7FFFF0
3FF9F0
0FE000
000000
000000
000000
000000
000000
000000
ENDCHAR
STARTCHAR 39
ENCODING 39
SWIDTH 520 0 
DWIDTH 5 0
BBX 5 30 0 -3
BITMAP
00
00
F8
F8
F8
F8
F8
F8
F8
70
70
70
00
00
00
00
00
00
00
00
00
00
00
00
00
00
00
00
00
00
ENDCHAR
STARTCHAR 40
ENCODING 40
SWIDTH 520 0 
DWIDTH 7 0
BBX 7 30 0 -3
BITMAP
00
0E
1E
1C
3C
38
78
78
78
70
F0
F0
F0
F0
F0
F0
F0
F0
F0
F0
70
78
78
78
38
3C
1C
1E
0E
00
ENDCHAR
STARTCHAR 41
ENCODING 41
SWIDTH 520 0 
DWIDTH 7 0
BBX 7 30 0 -3
BITMAP
00
E0
F0
70
78
38
3C
3C
3C
1C
1E
1E
1E
1E
1E
1E
1E
1E
1E
1E
1C
3C
3C
3C
38
78
70
F0
E0
00
ENDCHAR
STARTCHAR 42
ENCODING 42
SWIDTH 520 0 
DWIDTH 11 0
BBX 11 30 0 -3
BITMAP
0000
0E00
0E00
CE60
FFE0
FFE0
1F00
1F00
3B80
71C0
71C0
0000
0000
0000
0000
0000
0000
0000
0000
0000
0000
0000
0000
0000
0000
0000
0000
0000
0000
0000
ENDCHAR
STARTCHAR 43
ENCODING 43
SWIDTH 520 0 
DWIDTH 16 0
BBX 16 30 0 -3
BITMAP
0000
0000
0000
0000
03C0
03C0
03C0
03C0
03C0
03C0
FFFF
FFFF
FFFF
FFFF
03C0
03C0
03C0
03C0
03C0
03C0
0000
0000
0000
0000
0000
0000
0000
0000
0000
0000
ENDCHAR
STARTCHAR 44
ENCODING 44
SWIDTH 520 0 
DWIDTH 5 0
BBX 5 30 0 -3
BITMAP
00
00
00
00
00
00
00
00
00
00
00
00
00
00
00
00
00
00
00
78
78
78
78
18
18
30
F0
E0
00
00
ENDCHAR
STARTCHAR 45
ENCODING 45
SWIDTH 520 0 
DWIDTH 8 0
BBX 8 30 0 -3
BITMAP
00
00
00
00
00
00
00
00
00
00
00
00
00
FF
FF
FF
FF
00
00
00
00
00
00
00
00
00
00
00
00
00
ENDCHAR
STARTCHAR 46
ENCODING 46
SWIDTH 520 0 
DWIDTH 5 0
BBX 5 30 0 -3
BITMAP
00
00
00
00
00
00
00
00
00
00
00
00
00
00
00
00
00
00
00
F0
F0
F0
F0
00
00
00
00
00
00
00
ENDCHAR
STARTCHAR 47
ENCODING 47
SWIDTH 520 0 
DWIDTH 8 0
BBX 8 30 0 -3
BITMAP
00
07
07
0F
0E
0E
0E
1E
1C
1C
1C
1C
38
38
38
38
70
70
70
70
F0
E0
E0
00
00
00
00
00
00
00
ENDCHAR
STARTCHAR 48
ENCODING 48
SWIDTH 520 0 
DWIDTH 15 0
BBX 15 30 0 -3
BITMAP
0000
0000
0000
1FF0
7FFC
7FFC
F83E
F01E
F01E
F01E
F01E
F01E
F01E
F01E
F01E
F01E
F01E
F01E
F01E
F01E
F01E
F83E
7FFC
7FFC
1FF0
0000
0000
0000
0000
0000
ENDCHAR
STARTCHAR 49
ENCODING 49
SWIDTH 520 0 
DWIDTH 10 0
BBX 10 30 0 -3
BITMAP
0000
0000
0000
07C0
0FC0
1FC0
3FC0
7FC0
FBC0
73C0
23C0
03C0
03C0
03C0
03C0
03C0
03C0
03C0
03C0
03C0
03C0
03C0
03C0
03C0
03C0
0000
0000
0000
0000
0000
ENDCHAR
STARTCHAR 50
ENCODING 50
SWIDTH 520 0 
DWIDTH 15 0
BBX 15 30 0 -3
BITMAP
0000
0000
0000
1FF0
7FFC
7FFC
F83E
F01E
F01E
001E
001E
007E
00FC
03F8
0FE0
3F80
7E00
F800
F000
F000
F000
F000
FFFE
FFFE
FFFE
0000
0000
0000
0000
0000
ENDCHAR
STARTCHAR 51
ENCODING 51
SWIDTH 520 0 
DWIDTH 15 0
BBX 15 30 0 -3
BITMAP
0000
0000
0000
1FF0
7FFC
7FFC
F83E
F01E
F01E
001E
001E
003E
07FC
07F8
07FC
003E
001E
001E
001E
F01E
F01E
F83E
7FFC
7FFC
1FF0
0000
0000
0000
0000
0000
ENDCHAR
STARTCHAR 52
ENCODING 52
SWIDTH 520 0 
DWIDTH 16 0
BBX 16 30 0 -3
BITMAP
0000
0000
0000
03FC
03FC
07FC
07BC
0F3C
0F3C
1E3C
1E3C
3C3C
3C3C
783C
783C
F03C
F03C
FFFF
FFFF
FFFF
003C
003C
003C
003C
003C
0000
0000
0000
0000
0000
ENDCHAR
STARTCHAR 53
ENCODING 53
SWIDTH 520 0 
DWIDTH 15 0
BBX 15 30 0 -3
BITMAP
0000
0000
0000
FFFC
FFFC
FFFC
F000
F000
F000
F000
F7F0
FFFC
FFFC
F83E
F01E
001E
001E
001E
001E
F01E
F01E
F83E
7FFC
7FFC
1FF0
0000
0000
0000
0000
0000
ENDCHAR
STARTCHAR 54
ENCODING 54
SWIDTH 520 0 
DWIDTH 15 0
BBX 15 30 0 -3
BITMAP
0000
0000
0000
1FF0
7FFC
7FFC
F83E
F01E
F01E
F000
F000
F7F0
FFFC
FFFC
F83E
F01E
F01E
F01E
F01E
F01E
F01E
F83E
7FFC
7FFC
1FF0
0000
0000
0000
0000
0000
ENDCHAR
STARTCHAR 55
ENCODING 55
SWIDTH 520 0 
DWIDTH 15 0
BBX 15 30 0 -3
BITMAP
0000
0000
0000
FFFE
FFFE
FFFE
003C
003C
0078
0078
00F0
00F0
01E0
01E0
03C0
03C0
0780
0780
0F00
0F00
1E00
1E00
1E00
1E00
1E00
0000
0000
0000
0000
0000
ENDCHAR
STARTCHAR 56
ENCODING 56
SWIDTH 520 0 
DWIDTH 15 0
BBX 15 30 0 -3
BITMAP
0000
0000
0000
1FF0
7FFC
7FFC
F83E
F01E
F01E
F01E
F01E
F83E
7FFC
3FF8
7FFC
F83E
F01E
F01E
F01E
F01E
F01E
F83E
7FFC
7FFC
1FF0
0000
0000
0000
0000
0000
ENDCHAR
STARTCHAR 57
ENCODING 57
SWIDTH 520 0 
DWIDTH 15 0
BBX 15 30 0 -3
BITMAP
0000
0000
0000
1FF0
7FFC
7FFC
F83E
F01E
F01E
F01E
F01E
F01E
F01E
F83E
7FFE
7FFE
1FDE
001E
001E
F01E
F01E
F83E
7FFC
7FFC
1FF0
0000
0000
0000
0000
0000
ENDCHAR
STARTCHAR 58
ENCODING 58
SWIDTH 520 0 
DWIDTH 5 0
BBX 5 30 0 -3
BITMAP
00
00
00
00
00
00
00
F0
F0
F0
F0
00
00
00
00
00
00
00
00
F0
F0
F0
F0
00
00
00
00
00
00
00
ENDCHAR
STARTCHAR 59
ENCODING 59
SWIDTH 520 0 
DWIDTH 5 0
BBX 5 30 0 -3
BITMAP
00
00
00
00
00
00
00
78
78
78
78
00
00
00
00
00
00
00
00
78
78
78
78
18
18
30
F0
E0
00
00
ENDCHAR
STARTCHAR 60
ENCODING 60
SWIDTH 520 0 
DWIDTH 16 0
BBX 16 30 0 -3
BITMAP
0000
0000
0000
0000
0000
0003
001F
007F
01FF
0FFC
3FE0
FF00
FC00
FC00
FF80
3FE0
0FFC
01FF
007F
001F
0003
0000
0000
0000
0000
0000
0000
0000
0000
0000
ENDCHAR
STARTCHAR 61
ENCODING 61
SWIDTH 520 0 
DWIDTH 15 0
BBX 15 30 0 -3
BITMAP
0000
0000
0000
0000
0000
0000
0000
FFFE
FFFE
FFFE
FFFE
0000
0000
0000
FFFE
FFFE
FFFE
FFFE
0000
0000
0000
0000
0000
0000
0000
0000
0000
0000
0000
0000
ENDCHAR
STARTCHAR 62
ENCODING 62
SWIDTH 520 0 
DWIDTH 16 0
BBX 16 30 0 -3
BITMAP
0000
0000
0000
0000
0000
C000
F800
FE00
FF80
3FF0
07FC
00FF
003F
003F
00FF
07FC
3FF0
FF80
FE00
F800
C000
0000
0000
0000
0000
0000
0000
0000
0000
0000
ENDCHAR
STARTCHAR 63
ENCODING 63
SWIDTH 520 0 
DWIDTH 15 0
BBX 15 30 0 -3
BITMAP
0000
0FE0
3FF8
7FFC
783C
F01E
F01E
F01E
001E
003C
00FC
01F8
03F0
07C0
0780
0780
0780
0000
0000
0780
0780
0780
0780
0000
0000
0000
0000
0000
0000
0000
ENDCHAR
STARTCHAR 64
ENCODING 64
SWIDTH 520 0 
DWIDTH 28 0
BBX 28 30 0 -3
BITMAP
00000000
001FE000
00FFF800
03FFFE00
07E03F00
0F000F80
1E000380
3C1E7BC0
387FF9C0
78FFF8E0
70FFF0E0
71F3F0E0
F1E1F0E0
E3C1F0E0
E3C1F0E0
E3C1F1E0
E3C3E1C0
E3C3E1C0
E3E7E380
E3FFE700
71FFFE00
71FBFC00
7871F070
380000F0
3E0001E0
1F0003C0
0FE01F80
07FFFF00
01FFFE00
003FF000
ENDCHAR
STARTCHAR 65
ENCODING 65
SWIDTH 520 0 
DWIDTH 17 0
BBX 17 30 0 -3
BITMAP
000000
000000
03E000
03E000
07F000
07F000
07F000
0F7800
0F7800
0F7800
1E3C00
1E3C00
1E3C00
3C1E00
3C1E00
3FFE00
7FFF00
7FFF00
780F00
F00780
F00780
F00780
F00780
F00780
000000
000000
000000
000000
000000
000000
ENDCHAR
STARTCHAR 66
ENCODING 66
SWIDTH 520 0 
DWIDTH 17 0
BBX 17 30 0 -3
BITMAP
000000
000000
FFFC00
FFFF00
FFFF00
F00F80
F00780
F00780
F00780
F00780
F00F80
FFFF00
FFFE00
FFFE00
F00F00
F00780
F00780
F00780
F00780
F00780
F00F80
FFFF00
FFFF00
FFFC00
000000
000000
000000
000000
000000
000000
ENDCHAR
STARTCHAR 67
ENCODING 67
SWIDTH 520 0 
DWIDTH 17 0
BBX 17 30 0 -3
BITMAP
000000
000000
1FFC00
7FFF00
7FFF00
F80F80
F00780
F00780
F00000
F00000
F00000
F00000
F00000
F00000
F00000
F00000
F00000
F00000
F00780
F00780
F80F80
7FFF00
7FFF00
1FFC00
000000
000000
000000
000000
000000
000000
ENDCHAR
STARTCHAR 68
ENCODING 68
SWIDTH 520 0 
DWIDTH 17 0
BBX 17 30 0 -3
BITMAP
000000
000000
FFF800
FFFE00
FFFF00
F01F00
F00F80
F00F80
F00780
F00780
F00780
F00780
F00780
F00780
F00780
F00780
F00780
F00780
F00F80
F00F80
F01F00
FFFF00
FFFE00
FFF800
000000
000000
000000
000000
000000
000000
ENDCHAR
STARTCHAR 69
ENCODING 69
SWIDTH 520 0 
DWIDTH 17 0
BBX 17 30 0 -3
BITMAP
000000
000000
FFFF80
FFFF80
FFFF80
F00000
F00000
F00000
F00000
F00000
F00000
FFFF80
FFFF80
FFFF80
F00000
F00000
F00000
F00000
F00000
F00000
F00000
FFFF80
FFFF80
FFFF80
000000
000000
000000
000000
000000
000000
ENDCHAR
STARTCHAR 70
ENCODING 70
SWIDTH 520 0 
DWIDTH 16 0
BBX 16 30 0 -3
BITMAP
0000
0000
FFFF
FFFF
FFFF
F000
F000
F000
F000
F000
F000
FFFF
FFFF
FFFF
F000
F000
F000
F000
F000
F000
F000
F000
F000
F000
0000
0000
0000
0000
0000
0000
ENDCHAR
STARTCHAR 71
ENCODING 71
SWIDTH 520 0 
DWIDTH 17 0
BBX 17 30 0 -3
BITMAP
000000
000000
1FFC00
7FFF00
7FFF00
F80F80
F00780
F00780
F00000
F00000
F00000
F00000
F1FF80
F1FF80
F1FF80
F00780
F00780
F00780
F00780
F00780
F80F80
7FFF00
7FFF00
1FFC00
000000
000000
000000
000000
000000
000000
ENDCHAR
STARTCHAR 72
ENCODING 72
SWIDTH 520 0 
DWIDTH 17 0
BBX 17 30 0 -3
BITMAP
000000
000000
F00780
F00780
F00780
F00780
F00780
F00780
F00780
F00780
F00780
FFFF80
FFFF80
FFFF80
F00780
F00780
F00780
F00780
F00780
F00780
F00780
F00780
F00780
F00780
000000
000000
000000
000000
000000
000000
ENDCHAR
STARTCHAR 73
ENCODING 73
SWIDTH 520 0 
DWIDTH 4 0
BBX 4 30 0 -3
BITMAP
00
00
F0
F0
F0
F0
F0
F0
F0
F0
F0
F0
F0
F0
F0
F0
F0
F0
F0
F0
F0
F0
F0
F0
00
00
00
00
00
00
ENDCHAR
STARTCHAR 74
ENCODING 74
SWIDTH 520 0 
DWIDTH 14 0
BBX 14 30 0 -3
BITMAP
0000
0000
003C
003C
003C
003C
003C
003C
003C
003C
003C
003C
003C
003C
003C
003C
003C
003C
F03C
F03C
F03C
7878
7FF8
1FE0
0000
0000
0000
0000
0000
0000
ENDCHAR
STARTCHAR 75
ENCODING 75
SWIDTH 520 0 
DWIDTH 17 0
BBX 17 30 0 -3
BITMAP
000000
000000
F00780
F00F80
F01F00
F03E00
F07C00
F0F800
F1F000
F3E000
F7C000
FF8000
FF0000
FF0000
FF8000
F7C000
F3E000
F1F000
F0F800
F07C00
F03E00
F01F00
F00F80
F00780
000000
000000
000000
000000
000000
000000
ENDCHAR
STARTCHAR 76
ENCODING 76
SWIDTH 520 0 
DWIDTH 16 0
BBX 16 30 0 -3
BITMAP
0000
0000
F000
F000
F000
F000
F000
F000
F000
F000
F000
F000
F000
F000
F000
F000
F000
F000
F000
F000
F000
FFFF
FFFF
FFFF
0000
0000
0000
0000
0000
0000
ENDCHAR
STARTCHAR 77
ENCODING 77
SWIDTH 520 0 
DWIDTH 21 0
BBX 21 30 0 -3
BITMAP
000000
000000
F00078
F00078
F800F8
F800F8
FC01F8
FC01F8
FE03F8
FE03F8
FF07F8
F70778
F78F78
F38E78
F3DE78
F1DC78
F1FC78
F0F878
F0F878
F07078
F07078
F00078
F00078
F00078
000000
000000
000000
000000
000000
000000
ENDCHAR
STARTCHAR 78
ENCODING 78
SWIDTH 520 0 
DWIDTH 17 0
BBX 17 30 0 -3
BITMAP
000000
000000
F80780
F80780
FC0780
FC0780
FE0780
FE0780
FF0780
FF0780
F78780
F78780
F3C780
F3C780
F1C780
F1E780
F0E780
F0F780
F07780
F07F80
F03F80
F03F80
F01F80
F01F80
000000
000000
000000
000000
000000
000000
ENDCHAR
STARTCHAR 79
ENCODING 79
SWIDTH 520 0 
DWIDTH 17 0
BBX 17 30 0 -3
BITMAP
000000
000000
1FFC00
7FFF00
7FFF00
F80F80
F00780
F00780
F00780
F00780
F00780
F00780
F00780
F00780
F00780
F00780
F00780
F00780
F00780
F00780
F80F80
7FFF00
7FFF00
1FFC00
000000
000000
000000
000000
000000
000000
ENDCHAR
STARTCHAR 80
ENCODING 80
SWIDTH 520 0 
DWIDTH 17 0
BBX 17 30 0 -3
BITMAP
000000
000000
FFFC00
FFFF00
FFFF00
F00F80
F00780
F00780
F00780
F00780
F00780
F00F80
FFFF00
FFFF00
FFFC00
F00000
F00000
F00000
F00000
F00000
F00000
F00000
F00000
F00000
000000
000000
000000
000000
000000
000000
ENDCHAR
STARTCHAR 81
ENCODING 81
SWIDTH 520 0 
DWIDTH 17 0
BBX 17 30 0 -3
BITMAP
000000
000000
1FFC00
7FFF00
7FFF00
F80F80
F00780
F00780
F00780
F00780
F00780
F00780
F00780
F00780
F00780
F00780
F00780
F00780
F00780
F00780
F80F80
7FFF00
7FFF00
1FFF80
000780
000000
000000
000000
000000
000000
ENDCHAR
STARTCHAR 82
ENCODING 82
SWIDTH 520 0 
DWIDTH 18 0
BBX 18 30 0 -3
BITMAP
000000
000000
FFE000
FFF800
FFFC00
F07C00
F03E00
F01E00
F01E00
F01E00
F03E00
F07C00
FFFC00
FFF800
FFE000
F3E000
F1F000
F0F800
F07C00
F03E00
F01F00
F00F80
F007C0
F003C0
000000
000000
000000
000000
000000
000000
ENDCHAR
STARTCHAR 83
ENCODING 83
SWIDTH 520 0 
DWIDTH 17 0
BBX 17 30 0 -3
BITMAP
000000
000000
1FFC00
7FFF00
7FFF00
F80F80
F00780
F00780
F00780
F80780
7E0000
7F8000
1FE000
07F800
01FE00
007F00
001F00
F00F80
F00780
F00780
F80F80
7FFF00
7FFF00
1FFC00
000000
000000
000000
000000
000000
000000
ENDCHAR
STARTCHAR 84
ENCODING 84
SWIDTH 520 0 
DWIDTH 18 0
BBX 18 30 0 -3
BITMAP
000000
000000
FFFFC0
FFFFC0
FFFFC0
01E000
01E000
01E000
01E000
01E000
01E000
01E000
01E000
01E000
01E000
01E000
01E000
01E000
01E000
01E000
01E000
01E000
01E000
01E000
000000
000000
000000
000000
000000
000000
ENDCHAR
STARTCHAR 85
ENCODING 85
SWIDTH 520 0 
DWIDTH 17 0
BBX 17 30 0 -3
BITMAP
000000
000000
F00780
F00780
F00780
F00780
F00780
F00780
F00780
F00780
F00780
F00780
F00780
F00780
F00780
F00780
F00780
F00780
F00780
F00780
F80F80
7FFF00
7FFF00
1FFC00
000000
000000
000000
000000
000000
000000
ENDCHAR
STARTCHAR 86
ENCODING 86
SWIDTH 520 0 
DWIDTH 17 0
BBX 17 30 0 -3
BITMAP
000000
000000
F00780
F00780
780F00
780F00
780F00
3C1E00
3C1E00
3C1E00
1E3C00
1E3C00
1E3C00
0F7800
0F7800
0F7800
0F7800
07F000
07F000
07F000
07F000
03E000
03E000
03E000
000000
000000
000000
000000
000000
000000
ENDCHAR
STARTCHAR 87
ENCODING 87
SWIDTH 520 0 
DWIDTH 23 0
BBX 23 30 0 -3
BITMAP
000000
000000
F0381E
F0381E
F0381E
F0381E
F0381E
787C3C
787C3C
787C3C
787C3C
787C3C
3CEE78
3CEE78
3CEE78
3CEE78
1FC7F0
1FC7F0
1FC7F0
1FC7F0
0F83E0
0F83E0
0F83E0
0F83E0
000000
000000
000000
000000
000000
000000
ENDCHAR
STARTCHAR 88
ENCODING 88
SWIDTH 520 0 
DWIDTH 17 0
BBX 17 30 0 -3
BITMAP
000000
000000
F00780
F00780
780F00
780F00
3C1E00
1E3C00
1E3C00
0F7800
0F7800
07F000
07F000
07F000
07F000
0F7800
0F7800
1E3C00
1E3C00
3C1E00
780F00
780F00
F00780
F00780
000000
000000
000000
000000
000000
000000
ENDCHAR
STARTCHAR 89
ENCODING 89
SWIDTH 520 0 
DWIDTH 18 0
BBX 18 30 0 -3
BITMAP
000000
000000
F003C0
F003C0
780780
780780
3C0F00
3C0F00
1E1E00
0F3C00
0F3C00
07F800
07F800
03F000
03F000
01E000
01E000
01E000
01E000
01E000
01E000
01E000
01E000
01E000
000000
000000
000000
000000
000000
000000
ENDCHAR
STARTCHAR 90
ENCODING 90
SWIDTH 520 0 
DWIDTH 17 0
BBX 17 30 0 -3
BITMAP
000000
000000
FFFF80
FFFF80
FFFF80
000F00
001E00
003C00
007800
007800
00F000
01E000
01E000
03C000
078000
078000
0F0000
1E0000
1E0000
3C0000
780000
FFFF80
FFFF80
FFFF80
000000
000000
000000
000000
000000
000000
ENDCHAR
STARTCHAR 91
ENCODING 91
SWIDTH 520 0 
DWIDTH 8 0
BBX 8 30 0 -3
BITMAP
00
FF
FF
FF
FF
F0
F0
F0
F0
F0
F0
F0
F0
F0
F0
F0
F0
F0
F0
F0
F0
F0
F0
F0
F0
FF
FF
FF
FF
00
ENDCHAR
STARTCHAR 92
ENCODING 92
SWIDTH 520 0 
DWIDTH 8 0
BBX 8 30 0 -3
BITMAP
00
E0
E0
F0
70
70
70
70
38
38
38
38
1C
1C
1C
1C
1E
0E
0E
0E
0E
07
07
07
00
00
00
00
00
00
ENDCHAR
STARTCHAR 93
ENCODING 93
SWIDTH 520 0 
DWIDTH 8 0
BBX 8 30 0 -3
BITMAP
00
FF
FF
FF
FF
0F
0F
0F
0F
0F
0F
0F
0F
0F
0F
0F
0F
0F
0F
0F
0F
0F
0F
0F
0F
FF
FF
FF
FF
00
ENDCHAR
STARTCHAR 94
ENCODING 94
SWIDTH 520 0 
DWIDTH 14 0
BBX 14 30 0 -3
BITMAP
0000
0780
0780
0FC0
0FC0
1FE0
1FE0
3CF0
3CF0
3870
7878
7878
F03C
F03C
0000
0000
0000
0000
0000
0000
0000
0000
0000
0000
0000
0000
0000
0000
0000
0000
ENDCHAR
STARTCHAR 95
ENCODING 95
SWIDTH 520 0 
DWIDTH 18 0
BBX 18 30 0 -3
BITMAP
000000
000000
000000
000000
000000
000000
000000
000000
000000
000000
000000
000000
000000
000000
000000
000000
000000
000000
000000
000000
000000
000000
000000
000000
000000
000000
FFFFC0
FFFFC0
FFFFC0
000000
ENDCHAR
STARTCHAR 96
ENCODING 96
SWIDTH 520 0 
DWIDTH 7 0
BBX 7 30 0 -3
BITMAP
00
F8
78
3C
1C
0E
00
00
00
00
00
00
00
00
00
00
00
00
00
00
00
00
00
00
00
00
00
00
00
00
ENDCHAR
STARTCHAR 97
ENCODING 97
SWIDTH 520 0 
DWIDTH 14 0
BBX 14 30 0 -3
BITMAP
0000
0000
0000
0000
0000
0000
0000
1FE0
7FF8
FFFC
F87C
F03C
003C
1FBC
7FFC
7FFC
F87C
F03C
F03C
F03C
F87C
7FFC
7FFC
1FBC
0000
0000
0000
0000
0000
0000
ENDCHAR
STARTCHAR 98
ENCODING 98
SWIDTH 520 0 
DWIDTH 14 0
BBX 14 30 0 -3
BITMAP
0000
F000
F000
F000
F000
F000
F000
F7E0
FFF8
FFF8
F87C
F83C
F03C
F03C
F03C
F03C
F03C
F03C
F03C
F83C
F87C
FFF8
FFF8
F7E0
0000
0000
0000
0000
0000
0000
ENDCHAR
STARTCHAR 99
ENCODING 99
SWIDTH 520 0 
DWIDTH 14 0
BBX 14 30 0 -3
BITMAP
0000
0000
0000
0000
0000
0000
0000
1FE0
7FF8
7FF8
F87C
F03C
F03C
F000
F000
F000
F000
F000
F03C
F03C
F87C
7FF8
7FF8
1FE0
0000
0000
0000
0000
0000
0000
ENDCHAR
STARTCHAR 100
ENCODING 100
SWIDTH 520 0 
DWIDTH 14 0
BBX 14 30 0 -3
BITMAP
0000
003C
003C
003C
003C
003C
003C
1FBC
7FFC
7FFC
F87C
F03C
F03C
F03C
F03C
F03C
F03C
F03C
F03C
F03C
F87C
7FFC
7FFC
1FBC
0000
0000
0000
0000
0000
0000
ENDCHAR
STARTCHAR 101
ENCODING 101
SWIDTH 520 0 
DWIDTH 14 0
BBX 14 30 0 -3
BITMAP
0000
0000
0000
0000
0000
0000
0000
1FE0
7FF8
7FF8
F87C
F03C
F03C
FFFC
FFFC
FFFC
F000
F000
F03C
F03C
F87C
7FF8
7FF8
1FE0
0000
0000
0000
0000
0000
0000
ENDCHAR
STARTCHAR 102
ENCODING 102
SWIDTH 520 0 
DWIDTH 11 0
BBX 11 30 0 -3
BITMAP
0000
0000
07E0
1FE0
1FE0
3E00
3C00
3C00
3C00
FFE0
FFE0
FFE0
3C00
3C00
3C00
3C00
3C00
3C00
3C00
3C00
3C00
3C00
3C00
3C00
0000
0000
0000
0000
0000
0000
ENDCHAR
STARTCHAR 103
ENCODING 103
SWIDTH 520 0 
DWIDTH 14 0
BBX 14 30 0 -3
BITMAP
0000
0000
0000
0000
0000
0000
0000
1FBC
7FFC
7FFC
F87C
F03C
F03C
F03C
F03C
F03C
F03C
F03C
F03C
F03C
F87C
7FFC
7FFC
1FBC
003C
F03C
F87C
7FF8
7FF8
1FE0
ENDCHAR
STARTCHAR 104
ENCODING 104
SWIDTH 520 0 
DWIDTH 14 0
BBX 14 30 0 -3
BITMAP
0000
F000
F000
F000
F000
F000
F000
F3F0
F7F8
FFFC
FC7C
F83C
F03C
F03C
F03C
F03C
F03C
F03C
F03C
F03C
F03C
F03C
F03C
F03C
0000
0000
0000
0000
0000
0000
ENDCHAR
STARTCHAR 105
ENCODING 105
SWIDTH 520 0 
DWIDTH 5 0
BBX 5 30 0 -3
BITMAP
00
00
F0
F0
F0
F0
00
00
F0
F0
F0
F0
F0
F0
F0
F0
F0
F0
F0
F0
F0
F0
F0
F0
00
00
00
00
00
00
ENDCHAR
STARTCHAR 106
ENCODING 106
SWIDTH 520 0 
DWIDTH 10 0
BBX 10 30 0 -3
BITMAP
0000
0000
03C0
03C0
03C0
03C0
0000
0000
03C0
03C0
03C0
03C0
03C0
03C0
03C0
03C0
03C0
03C0
03C0
03C0
03C0
03C0
03C0
03C0
03C0
03C0
07C0
FF80
FF80
FE00
ENDCHAR
STARTCHAR 107
ENCODING 107
SWIDTH 520 0 
DWIDTH 14 0
BBX 14 30 0 -3
BITMAP
0000
0000
F000
F000
F000
F000
F000
F038
F078
F0F8
F1F0
F3E0
F7C0
FF80
FF00
FF00
FF80
F7C0
F3E0
F1F0
F0F8
F07C
F03C
F01C
0000
0000
0000
0000
0000
0000
ENDCHAR
STARTCHAR 108
ENCODING 108
SWIDTH 520 0 
DWIDTH 6 0
BBX 6 30 0 -3
BITMAP
00
00
FC
FC
FC
FC
3C
3C
3C
3C
3C
3C
3C
3C
3C
3C
3C
3C
3C
3C
3C
3C
3C
3C
00
00
00
00
00
00
ENDCHAR
STARTCHAR 109
ENCODING 109
SWIDTH 520 0 
DWIDTH 20 0
BBX 20 30 0 -3
BITMAP
000000
000000
000000
000000
000000
000000
000000
F3C3C0
F7E7E0
FFFFF0
FDFDF0
F8F8F0
F0F0F0
F0F0F0
F0F0F0
F0F0F0
F0F0F0
F0F0F0
F0F0F0
F0F0F0
F0F0F0
F0F0F0
F0F0F0
F0F0F0
000000
000000
000000
000000
000000
000000
ENDCHAR
STARTCHAR 110
ENCODING 110
SWIDTH 520 0 
DWIDTH 14 0
BBX 14 30 0 -3
BITMAP
0000
0000
0000
0000
0000
0000
0000
F3F0
F7F8
FFFC
FC7C
F83C
F03C
F03C
F03C
F03C
F03C
F03C
F03C
F03C
F03C
F03C
F03C
F03C
0000
0000
0000
0000
0000
0000
ENDCHAR
STARTCHAR 111
ENCODING 111
SWIDTH 520 0 
DWIDTH 14 0
BBX 14 30 0 -3
BITMAP
0000
0000
0000
0000
0000
0000
0000
1FE0
7FF8
7FF8
F87C
F03C
F03C
F03C
F03C
F03C
F03C
F03C
F03C
F03C
F87C
7FF8
7FF8
1FE0
0000
0000
0000
0000
0000
0000
ENDCHAR
STARTCHAR 112
ENCODING 112
SWIDTH 520 0 
DWIDTH 14 0
BBX 14 30 0 -3
BITMAP
0000
0000
0000
0000
0000
0000
0000
F7E0
FFF8
FFF8
F87C
F03C
F03C
F03C
F03C
F03C
F03C
F03C
F03C
F03C
F87C
FFF8
FFF8
F7E0
F000
F000
F000
F000
F000
F000
ENDCHAR
STARTCHAR 113
ENCODING 113
SWIDTH 520 0 
DWIDTH 14 0
BBX 14 30 0 -3
BITMAP
0000
0000
0000
0000
0000
0000
0000
1FBC
7FFC
7FFC
F87C
F03C
F03C
F03C
F03C
F03C
F03C
F03C
F03C
F03C
F87C
7FFC
7FFC
1FBC
003C
003C
003C
003C
003C
003C
ENDCHAR
STARTCHAR 114
ENCODING 114
SWIDTH 520 0 
DWIDTH 12 0
BBX 12 30 0 -3
BITMAP
0000
0000
0000
0000
0000
0000
0000
F3C0
F7E0
FFF0
FDF0
F8F0
F0F0
F0F0
F000
F000
F000
F000
F000
F000
F000
F000
F000
F000
0000
0000
0000
0000
0000
0000
ENDCHAR
STARTCHAR 115
ENCODING 115
SWIDTH 520 0 
DWIDTH 14 0
BBX 14 30 0 -3
BITMAP
0000
0000
0000
0000
0000
0000
0000
1FE0
7FF8
7FF8
F87C
F03C
F03C
7C00
7F80
1FE0
07F8
00F8
F03C
F03C
F87C
7FF8
7FF8
1FE0
0000
0000
0000
0000
0000
0000
ENDCHAR
STARTCHAR 116
ENCODING 116
SWIDTH 520 0 
DWIDTH 11 0
BBX 11 30 0 -3
BITMAP
0000
0000
3C00
3C00
3C00
3C00
3C00
3C00
FFC0
FFC0
FFC0
3C00
3C00
3C00
3C00
3C00
3C00
3C00
3C00
3CE0
3CE0
3FE0
3FE0
1FC0
0000
0000
0000
0000
0000
0000
ENDCHAR
STARTCHAR 117
ENCODING 117
SWIDTH 520 0 
DWIDTH 14 0
BBX 14 30 0 -3
BITMAP
0000
0000
0000
0000
0000
0000
0000
F03C
F03C
F03C
F03C
F03C
F03C
F03C
F03C
F03C
F03C
F03C
F03C
F07C
F8FC
FFFC
7FBC
3F3C
0000
0000
0000
0000
0000
0000
ENDCHAR
STARTCHAR 118
ENCODING 118
SWIDTH 520 0 
DWIDTH 14 0
BBX 14 30 0 -3
BITMAP
0000
0000
0000
0000
0000
0000
0000
F03C
F03C
F03C
F03C
7878
7878
7878
7878
3CF0
3CF0
3CF0
1FE0
1FE0
1FE0
0FC0
0FC0
0FC0
0000
0000
0000
0000
0000
0000
ENDCHAR
STARTCHAR 119
ENCODING 119
SWIDTH 520 0 
DWIDTH 18 0
BBX 18 30 0 -3
BITMAP
000000
000000
000000
000000
000000
000000
000000
F1E3C0
F1E3C0
F1E3C0
F1E3C0
F1E3C0
7BF780
7BF780
7BF780
7B3780
3F3F00
3F3F00
3F3F00
3F3F00
1E1E00
1E1E00
1E1E00
1E1E00
000000
000000
000000
000000
000000
000000
ENDCHAR
STARTCHAR 120
ENCODING 120
SWIDTH 520 0 
DWIDTH 14 0
BBX 14 30 0 -3
BITMAP
0000
0000
0000
0000
0000
0000
0000
F03C
F03C
7878
7878
3CF0
3CF0
1FE0
1FE0
0FC0
1FE0
1FE0
3CF0
3CF0
7878
7878
F03C
F03C
0000
0000
0000
0000
0000
0000
ENDCHAR
STARTCHAR 121
ENCODING 121
SWIDTH 520 0 
DWIDTH 15 0
BBX 15 30 0 -3
BITMAP
0000
0000
0000
0000
0000
0000
0000
F01E
F01E
F01E
783C
783C
783C
3C78
3C78
3C78
1EF0
1EF0
1EF0
0FE0
0FE0
0FE0
07C0
07C0
03C0
0780
0780
3F00
3F00
3E00
ENDCHAR
STARTCHAR 122
ENCODING 122
SWIDTH 520 0 
DWIDTH 14 0
BBX 14 30 0 -3
BITMAP
0000
0000
0000
0000
0000
0000
0000
FFFC
FFFC
FFFC
0078
00F0
01E0
01E0
03C0
0780
0F00
1E00
1E00
3C00
7800
FFFC
FFFC
FFFC
0000
0000
0000
0000
0000
0000
ENDCHAR
STARTCHAR 123
ENCODING 123
SWIDTH 520 0 
DWIDTH 10 0
BBX 10 30 0 -3
BITMAP
0000
03C0
0FC0
0FC0
1FC0
1E00
1E00
1E00
1E00
1E00
1E00
1E00
1E00
3C00
FC00
F000
FC00
3C00
1E00
1E00
1E00
1E00
1E00
1E00
1E00
1FC0
1FC0
0FC0
03C0
0000
ENDCHAR
STARTCHAR 124
ENCODING 124
SWIDTH 520 0 
DWIDTH 4 0
BBX 4 30 0 -3
BITMAP
00
E0
E0
E0
E0
E0
E0
E0
E0
E0
E0
E0
E0
E0
E0
E0
E0
E0
E0
E0
E0
E0
E0
E0
E0
E0
E0
E0
E0
00
ENDCHAR
STARTCHAR 125
ENCODING 125
SWIDTH 520 0 
DWIDTH 10 0
BBX 10 30 0 -3
BITMAP
0000
F000
FC00
FC00
FE00
1E00
1E00
1E00
1E00
1E00
1E00
1E00
1E00
0F00
0FC0
03C0
0FC0
0F00
1E00
1E00
1E00
1E00
1E00
1E00
1E00
FE00
FE00
FC00
F000
0000
ENDCHAR
STARTCHAR 126
ENCODING 126
SWIDTH 520 0 
DWIDTH 16 0
BBX 16 30 0 -3
BITMAP
0000
0000
0000
0000
0000
0000
0000
0000
0000
3E01
7FC3
FFFF
FFFF
C1FE
807C
0000
0000
0000
0000
0000
0000
0000
0000
0000
0000
0000
0000
0000
0000
0000
ENDCHAR
STARTCHAR 161
ENCODING 161
SWIDTH 520 0 
DWIDTH 5 0
BBX 5 30 0 -3
BITMAP
00
00
00
00
00
00
00
F0
F0
F0
F0
00
00
F0
F0
F0
F0
F0
F0
F0
F0
F0
F0
F0
F0
F0
F0
F0
F0
00
ENDCHAR
STARTCHAR 162
ENCODING 162
SWIDTH 520 0 
DWIDTH 14 0
BBX 14 30 0 -3
BITMAP
0000
0000
0018
0018
0038
0030
1FF0
7FF8
7FF8
F8FC
F1FC
F1BC
F180
F380
F300
F300
F700
F63C
F63C
FE7C
7FF8
7FF8
1FE0
3800
3000
7000
6000
6000
0000
0000
ENDCHAR
STARTCHAR 163
ENCODING 163
SWIDTH 520 0 
DWIDTH 17 0
BBX 17 30 0 -3
BITMAP
000000
01F800
07FE00
0FFF00
0F0F00
1E0780
1E0780
1E0780
1E0000
1E0000
1F0000
7FF000
7FF000
7FF000
0F0000
0F0000
0F0000
1E0000
3C0000
7FC380
FFFF80
FFFF80
703F00
000000
000000
000000
000000
000000
000000
000000
ENDCHAR
STARTCHAR 164
ENCODING 164
SWIDTH 520 0 
DWIDTH 15 0
BBX 15 30 0 -3
BITMAP
0000
0000
0000
0000
0000
0000
0000
0000
0000
2008
77DC
FFFE
7FFC
3C78
783C
701C
701C
701C
783C
3C78
7FFC
FFFE
77DC
2008
0000
0000
0000
0000
0000
0000
ENDCHAR
STARTCHAR 165
ENCODING 165
SWIDTH 520 0 
DWIDTH 16 0
BBX 16 30 0 -3
BITMAP
0000
0000
0000
0000
F00F
781E
781E
3C3C
3C3C
1E78
1E78
0FF0
0FF0
7FFE
7FFE
7FFE
03C0
03C0
7FFE
7FFE
7FFE
03C0
03C0
03C0
03C0
03C0
0000
0000
0000
0000
ENDCHAR
STARTCHAR 166
ENCODING 166
SWIDTH 520 0 
DWIDTH 4 0
BBX 4 30 0 -3
BITMAP
00
E0
E0
E0
E0
E0
E0
E0
E0
E0
E0
E0
E0
00
00
00
00
E0
E0
E0
E0
E0
E0
E0
E0
E0
E0
E0
E0
00
ENDCHAR
STARTCHAR 167
ENCODING 167
SWIDTH 520 0 
DWIDTH 15 0
BBX 15 30 0 -3
BITMAP
0000
0FE0
3FF8
3FF8
7C7C
783C
783C
7E00
3F00
3FC0
7FE0
F3F8
F1FC
F0FE
F83E
FC1E
7E1E
3F9E
1FFC
0FF8
03F8
01F8
007C
783C
783C
7C7C
3FF8
3FF8
0FE0
0000
ENDCHAR
STARTCHAR 168
ENCODING 168
SWIDTH 520 0 
DWIDTH 10 0
BBX 10 30 0 -3
BITMAP
0000
E1C0
E1C0
E1C0
0000
0000
0000
0000
0000
0000
0000
0000
0000
0000
0000
0000
0000
0000
0000
0000
0000
0000
0000
0000
0000
0000
0000
0000
0000
0000
ENDCHAR
STARTCHAR 169
ENCODING 169
SWIDTH 520 0 
DWIDTH 22 0
BBX 22 30 0 -3
BITMAP
000000
01FE00
07FF80
0F03C0
1C00E0
380070
707838
61FE18
E1CE1C
C3870C
C3870C
C3800C
C3800C
C3870C
C3870C
E1CE1C
61FE18
707838
380070
1C00E0
0F03C0
07FF80
01FE00
000000
000000
000000
000000
000000
000000
000000
ENDCHAR
STARTCHAR 170
ENCODING 170
SWIDTH 520 0 
DWIDTH 10 0
BBX 10 30 0 -3
BITMAP
0000
1E00
7F80
F3C0
E1C0
1DC0
7FC0
73C0
E1C0
E1C0
73C0
7FC0
1DC0
0000
FFC0
FFC0
0000
0000
0000
0000
0000
0000
0000
0000
0000
0000
0000
0000
0000
0000
ENDCHAR
STARTCHAR 171
ENCODING 171
SWIDTH 520 0 
DWIDTH 14 0
BBX 14 30 0 -3
BITMAP
0000
0000
0000
0000
0000
0000
0000
030C
071C
0E38
1E78
3CF0
38E0
79E0
F3C0
F3C0
79E0
38E0
3CF0
1E78
0E38
071C
030C
0000
0000
0000
0000
0000
0000
0000
ENDCHAR
STARTCHAR 172
ENCODING 172
SWIDTH 520 0 
DWIDTH 15 0
BBX 15 30 0 -3
BITMAP
0000
0000
0000
0000
0000
0000
0000
FFFE
FFFE
FFFE
FFFE
001E
001E
001E
001E
001E
001E
001E
0000
0000
0000
0000
0000
0000
0000
0000
0000
0000
0000
0000
ENDCHAR
STARTCHAR 174
ENCODING 174
SWIDTH 520 0 
DWIDTH 22 0
BBX 22 30 0 -3
BITMAP
000000
01FE00
07FF80
0F03C0
1C00E0
380070
71FC38
61FE18
E1861C
C1860C
C1860C
C1FC0C
C1F80C
C1B80C
C19C0C
E18E1C
618718
718338
380070
1C00E0
0F03C0
07FF80
01FE00
000000
000000
000000
000000
000000
000000
000000
ENDCHAR
STARTCHAR 175
ENCODING 175
SWIDTH 520 0 
DWIDTH 17 0
BBX 17 30 0 -3
BITMAP
FFFF80
FFFF80
FFFF80
000000
000000
000000
000000
000000
000000
000000
000000
000000
000000
000000
000000
000000
000000
000000
000000
000000
000000
000000
000000
000000
000000
000000
000000
000000
000000
000000
ENDCHAR
STARTCHAR 176
ENCODING 176
SWIDTH 520 0 
DWIDTH 9 0
BBX 9 30 0 -3
BITMAP
0000
3E00
7F00
E380
C180
C180
C180
E380
7F00
3E00
0000
0000
0000
0000
0000
0000
0000
0000
0000
0000
0000
0000
0000
0000
0000
0000
0000
0000
0000
0000
ENDCHAR
STARTCHAR 177
ENCODING 177
SWIDTH 520 0 
DWIDTH 16 0
BBX 16 30 0 -3
BITMAP
0000
0000
03C0
03C0
03C0
03C0
03C0
03C0
FFFF
FFFF
FFFF
FFFF
03C0
03C0
03C0
03C0
03C0
03C0
0000
FFFF
FFFF
FFFF
FFFF
0000
0000
0000
0000
0000
0000
0000
ENDCHAR
STARTCHAR 178
ENCODING 178
SWIDTH 520 0 
DWIDTH 9 0
BBX 9 30 0 -3
BITMAP
0000
3E00
7F00
F780
E380
0780
1F00
3E00
7800
F000
FF80
FF80
0000
0000
0000
0000
0000
0000
0000
0000
0000
0000
0000
0000
0000
0000
0000
0000
0000
0000
ENDCHAR
STARTCHAR 179
ENCODING 179
SWIDTH 520 0 
DWIDTH 9 0
BBX 9 30 0 -3
BITMAP
0000
7F00
FF80
E380
0380
3F80
3F00
0380
E380
E380
FF80
7F00
0000
0000
0000
0000
0000
0000
0000
0000
0000
0000
0000
0000
0000
0000
0000
0000
0000
0000
ENDCHAR
STARTCHAR 180
ENCODING 180
SWIDTH 520 0 
DWIDTH 7 0
BBX 7 30 0 -3
BITMAP
00
3E
3C
78
70
E0
00
00
00
00
00
00
00
00
00
00
00
00
00
00
00
00
00
00
00
00
00
00
00
00
ENDCHAR
STARTCHAR 181
ENCODING 181
SWIDTH 520 0 
DWIDTH 14 0
BBX 14 30 0 -3
BITMAP
0000
0000
0000
0000
0000
0000
0000
F03C
F03C
F03C
F03C
F03C
F03C
F03C
F03C
F03C
F03C
F03C
F87C
F8FC
FFFC
FFFC
F7BC
F000
F000
F000
F000
F000
F000
0000
ENDCHAR
STARTCHAR 182
ENCODING 182
SWIDTH 520 0 
DWIDTH 16 0
BBX 16 30 0 -3
BITMAP
0000
1FFF
3FFF
7FFF
FF9C
FF9C
FF9C
FF9C
FF9C
FF9C
7F9C
3F9C
0F9C
039C
039C
039C
039C
039C
039C
039C
039C
039C
039C
039C
039C
039C
039C
039C
0000
0000
ENDCHAR
STARTCHAR 183
ENCODING 183
SWIDTH 520 0 
DWIDTH 9 0
BBX 9 30 0 -3
BITMAP
0000
0000
0000
0000
0000
0000
0000
0000
3E00
7F00
FF80
FF80
FF80
FF80
FF80
7F00
3E00
0000
0000
0000
0000
0000
0000
0000
0000
0000
0000
0000
0000
0000
ENDCHAR
STARTCHAR 184
ENCODING 184
SWIDTH 520 0 
DWIDTH 8 0
BBX 8 30 0 -3
BITMAP
00
00
00
00
00
00
00
00
00
00
00
00
00
00
00
00
00
00
00
00
00
00
00
7E
7F
07
07
FE
FC
00
ENDCHAR
STARTCHAR 185
ENCODING 185
SWIDTH 520 0 
DWIDTH 6 0
BBX 6 30 0 -3
BITMAP
00
1C
3C
7C
FC
DC
1C
1C
1C
1C
1C
1C
00
00
00
00
00
00
00
00
00
00
00
00
00
00
00
00
00
00
ENDCHAR
STARTCHAR 186
ENCODING 186
SWIDTH 520 0 
DWIDTH 10 0
BBX 10 30 0 -3
BITMAP
0000
1E00
7F80
7380
E1C0
E1C0
E1C0
E1C0
E1C0
E1C0
7380
7F80
1E00
0000
FFC0
FFC0
0000
0000
0000
0000
0000
0000
0000
0000
0000
0000
0000
0000
0000
0000
ENDCHAR
STARTCHAR 187
ENCODING 187
SWIDTH 520 0 
DWIDTH 14 0
BBX 14 30 0 -3
BITMAP
0000
0000
0000
0000
0000
0000
0000
C300
E380
71C0
79E0
3CF0
1C70
1E78
0F3C
0F3C
1E78
1C70
3CF0
79E0
71C0
E380
C300
0000
0000
0000
0000
0000
0000
0000
ENDCHAR
STARTCHAR 188
ENCODING 188
SWIDTH 520 0 
DWIDTH 23 0
BBX 23 30 0 -3
BITMAP
000000
1C01C0
3C01C0
7C0380
FC0380
DC0700
1C0E00
1C0E00
1C1C00
1C1C00
1C3800
1C3800
00707C
00E07C
00E0FC
01C0DC
01C1DC
03819C
03839C
0703FE
0E03FE
1E001C
1C001C
000000
000000
000000
000000
000000
000000
000000
ENDCHAR
STARTCHAR 189
ENCODING 189
SWIDTH 520 0 
DWIDTH 23 0
BBX 23 30 0 -3
BITMAP
000000
1C01C0
3C01C0
7C0380
FC0380
DC0700
1C0E00
1C0E00
1C1C00
1C1C00
1C3800
1C3800
0070F8
00E1FC
00E3DE
01C38E
01C01E
03807C
0380F8
0701E0
0E03C0
1E03FE
1C03FE
000000
000000
000000
000000
000000
000000
000000
ENDCHAR
STARTCHAR 190
ENCODING 190
SWIDTH 520 0 
DWIDTH 24 0
BBX 24 30 0 -3
BITMAP
000000
7F00E0
FF80E0
E381C0
0381C0
3F8380
3F0700
038700
E38E00
E38E00
FF9C00
7F1C00
00383E
00383E
00707E
00706E
00E0EE
00E0CE
01C1CE
01C1FF
0381FF
07800E
07000E
000000
000000
000000
000000
000000
000000
000000
ENDCHAR
STARTCHAR 191
ENCODING 191
SWIDTH 520 0 
DWIDTH 15 0
BBX 15 30 0 -3
BITMAP
0000
0000
0000
0000
0000
0000
0000
03C0
03C0
03C0
03C0
0000
0000
03C0
03C0
03C0
07C0
1F80
3F00
7E00
7C00
F000
F01E
F01E
F03E
787C
7FFC
3FF8
0FE0
0000
ENDCHAR
STARTCHAR 192
ENCODING 192
SWIDTH 520 0 
DWIDTH 17 0
BBX 17 30 0 -3
BITMAP
0F8000
078000
03C000
01C000
00E000
000000
03E000
03E000
07F000
07F000
07F000
0F7800
0F7800
0F7800
1E3C00
1E3C00
1E3C00
3C1E00
3C1E00
3FFE00
7FFF00
7FFF00
780F00
F00780
F00780
F00780
F00780
F00780
000000
000000
ENDCHAR
STARTCHAR 193
ENCODING 193
SWIDTH 520 0 
DWIDTH 17 0
BBX 17 30 0 -3
BITMAP
00F800
00F000
01E000
01C000
038000
000000
03E000
03E000
07F000
07F000
07F000
0F7800
0F7800
0F7800
1E3C00
1E3C00
1E3C00
3C1E00
3C1E00
3FFE00
7FFF00
7FFF00
780F00
F00780
F00780
F00780
F00780
F00780
000000
000000
ENDCHAR
STARTCHAR 194
ENCODING 194
SWIDTH 520 0 
DWIDTH 17 0
BBX 17 30 0 -3
BITMAP
000000
01C000
03E000
077000
0E3800
000000
03E000
03E000
07F000
07F000
07F000
0F7800
0F7800
0F7800
1E3C00
1E3C00
1E3C00
3C1E00
3C1E00
3FFE00
7FFF00
7FFF00
780F00
F00780
F00780
F00780
F00780
F00780
000000
000000
ENDCHAR
STARTCHAR 195
ENCODING 195
SWIDTH 520 0 
DWIDTH 17 0
BBX 17 30 0 -3
BITMAP
000000
000000
078C00
0FFC00
0C7800
000000
03E000
03E000
07F000
07F000
07F000
0F7800
0F7800
0F7800
1E3C00
1E3C00
1E3C00
3C1E00
3C1E00
3FFE00
7FFF00
7FFF00
780F00
F00780
F00780
F00780
F00780
F00780
000000
000000
ENDCHAR
STARTCHAR 196
ENCODING 196
SWIDTH 520 0 
DWIDTH 17 0
BBX 17 30 0 -3
BITMAP
000000
000000
0E1C00
0E1C00
0E1C00
000000
03E000
03E000
07F000
07F000
07F000
0F7800
0F7800
0F7800
1E3C00
1E3C00
1E3C00
3C1E00
3C1E00
3FFE00
7FFF00
7FFF00
780F00
F00780
F00780
F00780
F00780
F00780
000000
000000
ENDCHAR
STARTCHAR 197
ENCODING 197
SWIDTH 520 0 
DWIDTH 17 0
BBX 17 30 0 -3
BITMAP
000000
000000
01E000
03F000
033000
033000
03F000
03E000
07F000
07F000
07F000
0F7800
0F7800
0F7800
1E3C00
1E3C00
1E3C00
3C1E00
3C1E00
3FFE00
7FFF00
7FFF00
780F00
F00780
F00780
F00780
F00780
F00780
000000
000000
ENDCHAR
STARTCHAR 198
ENCODING 198
SWIDTH 520 0 
DWIDTH 24 0
BBX 24 30 0 -3
BITMAP
000000
000000
000000
000000
000000
000000
03FFFF
03FFFF
07FFFF
07FC00
07FC00
0F3C00
0F3C00
0F3C00
1E3C00
1E3FFF
1E3FFF
3C3FFF
3C3C00
3FFC00
7FFC00
7FFC00
783C00
F03C00
F03C00
F03FFF
F03FFF
F03FFF
000000
000000
ENDCHAR
STARTCHAR 199
ENCODING 199
SWIDTH 520 0 
DWIDTH 17 0
BBX 17 30 0 -3
BITMAP
000000
000000
1FFC00
7FFF00
7FFF00
F80F80
F00780
F00780
F00000
F00000
F00000
F00000
F00000
F00000
F00000
F00000
F00000
F00000
F00780
F00780
F80F80
7FFF00
7FFF00
1FFC00
07E000
07F000
007000
007000
0FE000
0FC000
ENDCHAR
STARTCHAR 200
ENCODING 200
SWIDTH 520 0 
DWIDTH 17 0
BBX 17 30 0 -3
BITMAP
07C000
03C000
01E000
00E000
007000
000000
FFFF80
FFFF80
FFFF80
F00000
F00000
F00000
F00000
F00000
F00000
FFFF80
FFFF80
FFFF80
F00000
F00000
F00000
F00000
F00000
F00000
F00000
FFFF80
FFFF80
FFFF80
000000
000000
ENDCHAR
STARTCHAR 201
ENCODING 201
SWIDTH 520 0 
DWIDTH 17 0
BBX 17 30 0 -3
BITMAP
00F800
00F000
01E000
01C000
038000
000000
FFFF80
FFFF80
FFFF80
F00000
F00000
F00000
F00000
F00000
F00000
FFFF80
FFFF80
FFFF80
F00000
F00000
F00000
F00000
F00000
F00000
F00000
FFFF80
FFFF80
FFFF80
000000
000000
ENDCHAR
STARTCHAR 202
ENCODING 202
SWIDTH 520 0 
DWIDTH 17 0
BBX 17 30 0 -3
BITMAP
000000
01C000
03E000
077000
0E3800
000000
FFFF80
FFFF80
FFFF80
F00000
F00000
F00000
F00000
F00000
F00000
FFFF80
FFFF80
FFFF80
F00000
F00000
F00000
F00000
F00000
F00000
F00000
FFFF80
FFFF80
FFFF80
000000
000000
ENDCHAR
STARTCHAR 203
ENCODING 203
SWIDTH 520 0 
DWIDTH 17 0
BBX 17 30 0 -3
BITMAP
000000
000000
1C3800
1C3800
1C3800
000000
FFFF80
FFFF80
FFFF80
F00000
F00000
F00000
F00000
F00000
F00000
FFFF80
FFFF80
FFFF80
F00000
F00000
F00000
F00000
F00000
F00000
F00000
FFFF80
FFFF80
FFFF80
000000
000000
ENDCHAR
STARTCHAR 204
ENCODING 204
SWIDTH 520 0 
DWIDTH 7 0
BBX 7 30 0 -3
BITMAP
F8
78
3C
1C
0E
00
3C
3C
3C
3C
3C
3C
3C
3C
3C
3C
3C
3C
3C
3C
3C
3C
3C
3C
3C
3C
3C
3C
00
00
ENDCHAR
STARTCHAR 205
ENCODING 205
SWIDTH 520 0 
DWIDTH 7 0
BBX 7 30 0 -3
BITMAP
3E
3C
78
70
E0
00
78
78
78
78
78
78
78
78
78
78
78
78
78
78
78
78
78
78
78
78
78
78
00
00
ENDCHAR
STARTCHAR 206
ENCODING 206
SWIDTH 520 0 
DWIDTH 9 0
BBX 9 30 0 -3
BITMAP
0000
1C00
3E00
7700
E380
0000
3C00
3C00
3C00
3C00
3C00
3C00
3C00
3C00
3C00
3C00
3C00
3C00
3C00
3C00
3C00
3C00
3C00
3C00
3C00
3C00
3C00
3C00
0000
0000
ENDCHAR
STARTCHAR 207
ENCODING 207
SWIDTH 520 0 
DWIDTH 10 0
BBX 10 30 0 -3
BITMAP
0000
0000
E1C0
E1C0
E1C0
0000
1E00
1E00
1E00
1E00
1E00
1E00
1E00
1E00
1E00
1E00
1E00
1E00
1E00
1E00
1E00
1E00
1E00
1E00
1E00
1E00
1E00
1E00
0000
0000
ENDCHAR
STARTCHAR 208
ENCODING 208
SWIDTH 520 0 
DWIDTH 19 0
BBX 19 30 0 -3
BITMAP
000000
000000
000000
000000
000000
000000
3FFE00
3FFF80
3FFFC0
3C07C0
3C03E0
3C03E0
3C01E0
3C01E0
3C01E0
FFE1E0
FFE1E0
FFE1E0
3C01E0
3C01E0
3C01E0
3C01E0
3C03E0
3C03E0
3C07C0
3FFFC0
3FFF80
3FFE00
000000
000000
ENDCHAR
STARTCHAR 209
ENCODING 209
SWIDTH 520 0 
DWIDTH 17 0
BBX 17 30 0 -3
BITMAP
000000
000000
0F1800
1FF800
18F000
000000
F80780
F80780
FC0780
FC0780
FE0780
FE0780
FF0780
FF0780
F78780
F78780
F3C780
F3C780
F1C780
F1E780
F0E780
F0F780
F07780
F07F80
F03F80
F03F80
F01F80
F01F80
000000
000000
ENDCHAR
STARTCHAR 210
ENCODING 210
SWIDTH 520 0 
DWIDTH 17 0
BBX 17 30 0 -3
BITMAP
0F8000
078000
03C000
01C000
00E000
000000
1FFC00
7FFF00
7FFF00
F80F80
F00780
F00780
F00780
F00780
F00780
F00780
F00780
F00780
F00780
F00780
F00780
F00780
F00780
F00780
F80F80
7FFF00
7FFF00
1FFC00
000000
000000
ENDCHAR
STARTCHAR 211
ENCODING 211
SWIDTH 520 0 
DWIDTH 17 0
BBX 17 30 0 -3
BITMAP
00F800
00F000
01E000
01C000
038000
000000
1FFC00
7FFF00
7FFF00
F80F80
F00780
F00780
F00780
F00780
F00780
F00780
F00780
F00780
F00780
F00780
F00780
F00780
F00780
F00780
F80F80
7FFF00
7FFF00
1FFC00
000000
000000
ENDCHAR
STARTCHAR 212
ENCODING 212
SWIDTH 520 0 
DWIDTH 17 0
BBX 17 30 0 -3
BITMAP
000000
01C000
03E000
077000
0E3800
000000
1FFC00
7FFF00
7FFF00
F80F80
F00780
F00780
F00780
F00780
F00780
F00780
F00780
F00780
F00780
F00780
F00780
F00780
F00780
F00780
F80F80
7FFF00
7FFF00
1FFC00
000000
000000
ENDCHAR
STARTCHAR 213
ENCODING 213
SWIDTH 520 0 
DWIDTH 17 0
BBX 17 30 0 -3
BITMAP
000000
000000
0F1800
1FF800
18F000
000000
1FFC00
7FFF00
7FFF00
F80F80
F00780
F00780
F00780
F00780
F00780
F00780
F00780
F00780
F00780
F00780
F00780
F00780
F00780
F00780
F80F80
7FFF00
7FFF00
1FFC00
000000
000000
ENDCHAR
STARTCHAR 214
ENCODING 214
SWIDTH 520 0 
DWIDTH 17 0
BBX 17 30 0 -3
BITMAP
000000
000000
1C3800
1C3800
1C3800
000000
1FFC00
7FFF00
7FFF00
F80F80
F00780
F00780
F00780
F00780
F00780
F00780
F00780
F00780
F00780
F00780
F00780
F00780
F00780
F00780
F80F80
7FFF00
7FFF00
1FFC00
000000
000000
ENDCHAR
STARTCHAR 215
ENCODING 215
SWIDTH 520 0 
DWIDTH 16 0
BBX 16 30 0 -3
BITMAP
0000
0000
0000
0000
0000
0000
0000
0000
0000
0000
2004
700E
F81F
7C3E
3E7C
1FF8
0FF0
07E0
07E0
0FF0
1FF8
3E7C
7C3E
F81F
700E
2004
0000
0000
0000
0000
ENDCHAR
STARTCHAR 216
ENCODING 216
SWIDTH 520 0 
DWIDTH 23 0
BBX 23 30 0 -3
BITMAP
000000
000000
000000
000000
000000
00001E
03FFBE
0FFFFC
0FFFF8
1F01F0
1E03F0
1E07F0
1E0FF0
1E1FF0
1E1EF0
1E3CF0
1E38F0
1E70F0
1E70F0
1EE0F0
1FE0F0
1FC0F0
1FC0F0
1F80F0
1F01F0
3FFFE0
7FFFE0
FBFF80
F00000
000000
ENDCHAR
STARTCHAR 217
ENCODING 217
SWIDTH 520 0 
DWIDTH 17 0
BBX 17 30 0 -3
BITMAP
0F8000
078000
03C000
01C000
00E000
000000
F00780
F00780
F00780
F00780
F00780
F00780
F00780
F00780
F00780
F00780
F00780
F00780
F00780
F00780
F00780
F00780
F00780
F00780
F80F80
7FFF00
7FFF00
1FFC00
000000
000000
ENDCHAR
STARTCHAR 218
ENCODING 218
SWIDTH 520 0 
DWIDTH 17 0
BBX 17 30 0 -3
BITMAP
00F800
00F000
01E000
01C000
038000
000000
F00780
F00780
F00780
F00780
F00780
F00780
F00780
F00780
F00780
F00780
F00780
F00780
F00780
F00780
F00780
F00780
F00780
F00780
F80F80
7FFF00
7FFF00
1FFC00
000000
000000
ENDCHAR
STARTCHAR 219
ENCODING 219
SWIDTH 520 0 
DWIDTH 17 0
BBX 17 30 0 -3
BITMAP
000000
01C000
03E000
077000
0E3800
000000
F00780
F00780
F00780
F00780
F00780
F00780
F00780
F00780
F00780
F00780
F00780
F00780
F00780
F00780
F00780
F00780
F00780
F00780
F80F80
7FFF00
7FFF00
1FFC00
000000
000000
ENDCHAR
STARTCHAR 220
ENCODING 220
SWIDTH 520 0 
DWIDTH 17 0
BBX 17 30 0 -3
BITMAP
000000
000000
1C3800
1C3800
1C3800
000000
F00780
F00780
F00780
F00780
F00780
F00780
F00780
F00780
F00780
F00780
F00780
F00780
F00780
F00780
F00780
F00780
F00780
F00780
F80F80
7FFF00
7FFF00
1FFC00
000000
000000
ENDCHAR
STARTCHAR 221
ENCODING 221
SWIDTH 520 0 
DWIDTH 18 0
BBX 18 30 0 -3
BITMAP
007C00
007800
00F000
00E000
01C000
000000
F003C0
F003C0
780780
780780
3C0F00
3C0F00
1E1E00
0F3C00
0F3C00
07F800
07F800
03F000
03F000
01E000
01E000
01E000
01E000
01E000
01E000
01E000
01E000
01E000
000000
000000
ENDCHAR
STARTCHAR 222
ENCODING 222
SWIDTH 520 0 
DWIDTH 14 0
BBX 14 30 0 -3
BITMAP
0000
0000
0000
0000
0000
0000
F000
F000
F000
F000
FFE0
FFF8
FFF8
F07C
F03C
F03C
F03C
F03C
F03C
F03C
F07C
FFF8
FFF8
FFE0
F000
F000
F000
F000
0000
0000
ENDCHAR
STARTCHAR 223
ENCODING 223
SWIDTH 520 0 
DWIDTH 15 0
BBX 15 30 0 -3
BITMAP
0000
0000
0000
0000
0000
0000
1F80
3FE0
7FF0
78F0
F0F0
F0F0
F1E0
F1E0
F3C0
F3C0
F3C0
F3E0
F1F0
F0F8
F07C
F03E
F01E
F11E
F39E
F7FC
F3FC
F0F0
0000
0000
ENDCHAR
STARTCHAR 224
ENCODING 224
SWIDTH 520 0 
DWIDTH 14 0
BBX 14 30 0 -3
BITMAP
0000
0000
0000
0000
1F00
0F00
0780
0380
01C0
0000
0000
1FE0
7FF8
FFFC
F87C
F03C
003C
1FBC
7FFC
7FFC
F87C
F03C
F03C
F03C
F87C
7FFC
7FFC
1FBC
0000
0000
ENDCHAR
STARTCHAR 225
ENCODING 225
SWIDTH 520 0 
DWIDTH 14 0
BBX 14 30 0 -3
BITMAP
0000
0000
0000
0000
03E0
03C0
0780
0700
0E00
0000
0000
1FE0
7FF8
FFFC
F87C
F03C
003C
1FBC
7FFC
7FFC
F87C
F03C
F03C
F03C
F87C
7FFC
7FFC
1FBC
0000
0000
ENDCHAR
STARTCHAR 226
ENCODING 226
SWIDTH 520 0 
DWIDTH 14 0
BBX 14 30 0 -3
BITMAP
0000
0000
0000
0000
0000
0700
0F80
1DC0
38E0
0000
0000
1FE0
7FF8
FFFC
F87C
F03C
003C
1FBC
7FFC
7FFC
F87C
F03C
F03C
F03C
F87C
7FFC
7FFC
1FBC
0000
0000
ENDCHAR
STARTCHAR 227
ENCODING 227
SWIDTH 520 0 
DWIDTH 14 0
BBX 14 30 0 -3
BITMAP
0000
0000
0000
0000
0000
0000
1E30
3FF0
31E0
0000
0000
1FE0
7FF8
FFFC
F87C
F03C
003C
1FBC
7FFC
7FFC
F87C
F03C
F03C
F03C
F87C
7FFC
7FFC
1FBC
0000
0000
ENDCHAR
STARTCHAR 228
ENCODING 228
SWIDTH 520 0 
DWIDTH 14 0
BBX 14 30 0 -3
BITMAP
0000
0000
0000
0000
0000
0000
3870
3870
3870
0000
0000
1FE0
7FF8
FFFC
F87C
F03C
003C
1FBC
7FFC
7FFC
F87C
F03C
F03C
F03C
F87C
7FFC
7FFC
1FBC
0000
0000
ENDCHAR
STARTCHAR 229
ENCODING 229
SWIDTH 520 0 
DWIDTH 14 0
BBX 14 30 0 -3
BITMAP
0000
0000
0000
0780
0FC0
0CC0
0CC0
0FC0
0780
0000
0000
1FE0
7FF8
FFFC
F87C
F03C
003C
1FBC
7FFC
7FFC
F87C
F03C
F03C
F03C
F87C
7FFC
7FFC
1FBC
0000
0000
ENDCHAR
STARTCHAR 230
ENCODING 230
SWIDTH 520 0 
DWIDTH 23 0
BBX 23 30 0 -3
BITMAP
000000
000000
000000
000000
000000
000000
000000
000000
000000
000000
000000
1FCFF0
7FFFFC
FFFFFC
F8FC3E
F0781E
00781E
01FFFE
1FFFFE
7FFFFE
7E7800
F07800
F0781E
F0781E
F8FC3E
FFFFFC
7FFFFC
3F0FF0
000000
000000
ENDCHAR
STARTCHAR 231
ENCODING 231
SWIDTH 520 0 
DWIDTH 14 0
BBX 14 30 0 -3
BITMAP
0000
0000
0000
0000
0000
0000
0000
1FE0
7FF8
7FF8
F87C
F03C
F03C
F000
F000
F000
F000
F000
F03C
F03C
F87C
7FF8
7FF8
1FE0
0FC0
0FE0
00E0
00E0
1FC0
1F80
ENDCHAR
STARTCHAR 232
ENCODING 232
SWIDTH 520 0 
DWIDTH 14 0
BBX 14 30 0 -3
BITMAP
0000
0000
0000
0000
1F00
0F00
0780
0380
01C0
0000
0000
1FE0
7FF8
7FF8
F87C
F03C
F03C
FFFC
FFFC
FFFC
F000
F000
F03C
F03C
F87C
7FF8
7FF8
1FE0
0000
0000
ENDCHAR
STARTCHAR 233
ENCODING 233
SWIDTH 520 0 
DWIDTH 14 0
BBX 14 30 0 -3
BITMAP
0000
0000
0000
0000
03E0
03C0
0780
0700
0E00
0000
0000
1FE0
7FF8
7FF8
F87C
F03C
F03C
FFFC
FFFC
FFFC
F000
F000
F03C
F03C
F87C
7FF8
7FF8
1FE0
0000
0000
ENDCHAR
STARTCHAR 234
ENCODING 234
SWIDTH 520 0 
DWIDTH 14 0
BBX 14 30 0 -3
BITMAP
0000
0000
0000
0000
0000
0700
0F80
1DC0
38E0
0000
0000
1FE0
7FF8
7FF8
F87C
F03C
F03C
FFFC
FFFC
FFFC
F000
F000
F03C
F03C
F87C
7FF8
7FF8
1FE0
0000
0000
ENDCHAR
STARTCHAR 235
ENCODING 235
SWIDTH 520 0 
DWIDTH 14 0
BBX 14 30 0 -3
BITMAP
0000
0000
0000
0000
0000
0000
3870
3870
3870
0000
0000
1FE0
7FF8
7FF8
F87C
F03C
F03C
FFFC
FFFC
FFFC
F000
F000
F03C
F03C
F87C
7FF8
7FF8
1FE0
0000
0000
ENDCHAR
STARTCHAR 236
ENCODING 236
SWIDTH 520 0 
DWIDTH 7 0
BBX 7 30 0 -3
BITMAP
00
00
00
00
F8
78
3C
1C
0E
00
00
00
3C
3C
3C
3C
3C
3C
3C
3C
3C
3C
3C
3C
3C
3C
3C
3C
00
00
ENDCHAR
STARTCHAR 237
ENCODING 237
SWIDTH 520 0 
DWIDTH 7 0
BBX 7 30 0 -3
BITMAP
00
00
00
00
3E
3C
78
70
E0
00
00
00
78
78
78
78
78
78
78
78
78
78
78
78
78
78
78
78
00
00
ENDCHAR
STARTCHAR 238
ENCODING 238
SWIDTH 520 0 
DWIDTH 9 0
BBX 9 30 0 -3
BITMAP
0000
0000
0000
0000
0000
1C00
3E00
7700
E380
0000
0000
0000
3C00
3C00
3C00
3C00
3C00
3C00
3C00
3C00
3C00
3C00
3C00
3C00
3C00
3C00
3C00
3C00
0000
0000
ENDCHAR
STARTCHAR 239
ENCODING 239
SWIDTH 520 0 
DWIDTH 10 0
BBX 10 30 0 -3
BITMAP
0000
0000
0000
0000
0000
0000
E1C0
E1C0
E1C0
0000
0000
0000
1E00
1E00
1E00
1E00
1E00
1E00
1E00
1E00
1E00
1E00
1E00
1E00
1E00
1E00
1E00
1E00
0000
0000
ENDCHAR
STARTCHAR 240
ENCODING 240
SWIDTH 520 0 
DWIDTH 14 0
BBX 14 30 0 -3
BITMAP
0000
0000
0000
0000
0030
3C70
1EF0
0FE0
1FC0
7FC0
F1E0
C0F0
1FF8
7FF8
7FFC
F87C
F03C
F03C
F03C
F03C
F03C
F03C
F03C
F03C
F87C
7FF8
7FF8
1FE0
0000
0000
ENDCHAR
STARTCHAR 241
ENCODING 241
SWIDTH 520 0 
DWIDTH 14 0
BBX 14 30 0 -3
BITMAP
0000
0000
0000
0000
0000
0000
1E30
3FF0
31E0
0000
0000
F3F0
F7F8
FFFC
FC7C
F83C
F03C
F03C
F03C
F03C
F03C
F03C
F03C
F03C
F03C
F03C
F03C
F03C
0000
0000
ENDCHAR
STARTCHAR 242
ENCODING 242
SWIDTH 520 0 
DWIDTH 14 0
BBX 14 30 0 -3
BITMAP
0000
0000
0000
0000
1F00
0F00
0780
0380
01C0
0000
0000
1FE0
7FF8
7FF8
F87C
F03C
F03C
F03C
F03C
F03C
F03C
F03C
F03C
F03C
F87C
7FF8
7FF8
1FE0
0000
0000
ENDCHAR
STARTCHAR 243
ENCODING 243
SWIDTH 520 0 
DWIDTH 14 0
BBX 14 30 0 -3
BITMAP
0000
0000
0000
0000
03E0
03C0
0780
0700
0E00
0000
0000
1FE0
7FF8
7FF8
F87C
F03C
F03C
F03C
F03C
F03C
F03C
F03C
F03C
F03C
F87C
7FF8
7FF8
1FE0
0000
0000
ENDCHAR
STARTCHAR 244
ENCODING 244
SWIDTH 520 0 
DWIDTH 14 0
BBX 14 30 0 -3
BITMAP
0000
0000
0000
0000
0000
0700
0F80
1DC0
38E0
0000
0000
1FE0
7FF8
7FF8
F87C
F03C
F03C
F03C
F03C
F03C
F03C
F03C
F03C
F03C
F87C
7FF8
7FF8
1FE0
0000
0000
ENDCHAR
STARTCHAR 245
ENCODING 245
SWIDTH 520 0 
DWIDTH 14 0
BBX 14 30 0 -3
BITMAP
0000
0000
0000
0000
0000
0000
1E30
3FF0
31E0
0000
0000
1FE0
7FF8
7FF8
F87C
F03C
F03C
F03C
F03C
F03C
F03C
F03C
F03C
F03C
F87C
7FF8
7FF8
1FE0
0000
0000
ENDCHAR
STARTCHAR 246
ENCODING 246
SWIDTH 520 0 
DWIDTH 14 0
BBX 14 30 0 -3
BITMAP
0000
0000
0000
0000
0000
0000
3870
3870
3870
0000
0000
1FE0
7FF8
7FF8
F87C
F03C
F03C
F03C
F03C
F03C
F03C
F03C
F03C
F03C
F87C
7FF8
7FF8
1FE0
0000
0000
ENDCHAR
STARTCHAR 247
ENCODING 247
SWIDTH 520 0 
DWIDTH 16 0
BBX 16 30 0 -3
BITMAP
0000
0000
0000
0000
0000
0000
0000
0000
0000
03C0
03C0
03C0
03C0
0000
0000
FFFF
FFFF
FFFF
FFFF
0000
0000
03C0
03C0
03C0
03C0
0000
0000
0000
0000
0000
ENDCHAR
STARTCHAR 248
ENCODING 248
SWIDTH 520 0 
DWIDTH 17 0
BBX 17 30 0 -3
BITMAP
000000
000000
000000
000000
000000
000000
000000
000000
000000
000000
000000
0FF780
3FFF80
3FFF00
7C3E00
787E00
787E00
78FE00
78FE00
79DE00
799E00
7B9E00
7F1E00
7F1E00
7E3E00
3FFC00
7FFC00
FFF000
F00000
000000
ENDCHAR
STARTCHAR 249
ENCODING 249
SWIDTH 520 0 
DWIDTH 15 0
BBX 15 30 0 -3
BITMAP
0000
0000
0000
0000
1F00
0F00
0780
0380
01C0
0000
0000
F03C
F03C
F03C
F03C
F03C
F03C
F03C
F03C
F03C
F03C
F03C
F03C
F07C
F8FC
FFFC
7FBC
3F3C
0000
0000
ENDCHAR
STARTCHAR 250
ENCODING 250
SWIDTH 520 0 
DWIDTH 14 0
BBX 14 30 0 -3
BITMAP
0000
0000
0000
0000
03E0
03C0
0780
0700
0E00
0000
0000
F03C
F03C
F03C
F03C
F03C
F03C
F03C
F03C
F03C
F03C
F03C
F03C
F07C
F8FC
FFFC
7FBC
3F3C
0000
0000
ENDCHAR
STARTCHAR 251
ENCODING 251
SWIDTH 520 0 
DWIDTH 14 0
BBX 14 30 0 -3
BITMAP
0000
0000
0000
0000
0000
0700
0F80
1DC0
38E0
0000
0000
F03C
F03C
F03C
F03C
F03C
F03C
F03C
F03C
F03C
F03C
F03C
F03C
F07C
F8FC
FFFC
7FBC
3F3C
0000
0000
ENDCHAR
STARTCHAR 252
ENCODING 252
SWIDTH 520 0 
DWIDTH 14 0
BBX 14 30 0 -3
BITMAP
0000
0000
0000
0000
0000
0000
3870
3870
3870
0000
0000
F03C
F03C
F03C
F03C
F03C
F03C
F03C
F03C
F03C
F03C
F03C
F03C
F07C
F8FC
FFFC
7FBC
3F3C
0000
0000
ENDCHAR
STARTCHAR 253
ENCODING 253
SWIDTH 520 0 
DWIDTH 15 0
BBX 15 30 0 -3
BITMAP
01F0
01E0
03C0
0380
0700
0000
0000
F01E
F01E
F01E
783C
783C
783C
3C78
3C78
3C78
1EF0
1EF0
1EF0
0FE0
0FE0
0FE0
07C0
07C0
03C0
0780
0780
3F00
3F00
3E00
ENDCHAR
STARTCHAR 254
ENCODING 254
SWIDTH 520 0 
DWIDTH 15 0
BBX 15 30 0 -3
BITMAP
F000
F000
F000
F000
F000
F000
F3F0
F7FC
FFFC
FC3E
F81E
F01E
F01E
F01E
F01E
F01E
F01E
F01E
F81E
FC3E
FFFC
F7FC
F3F0
F000
F000
F000
F000
F000
F000
0000
ENDCHAR
STARTCHAR 255
ENCODING 255
SWIDTH 520 0 
DWIDTH 15 0
BBX 15 30 0 -3
BITMAP
0000
0000
1C38
1C38
1C38
0000
0000
F01E
F01E
F01E
783C
783C
783C
3C78
3C78
3C78
1EF0
1EF0
1EF0
0FE0
0FE0
0FE0
07C0
07C0
03C0
0780
0780
3F00
3F00
3E00
ENDCHAR
STARTCHAR 258
ENCODING 258
SWIDTH 520 0 
DWIDTH 17 0
BBX 17 30 0 -3
BITMAP
000000
0C1800
0E3800
07F000
03E000
000000
03E000
03E000
07F000
07F000
07F000
0F7800
0F7800
0F7800
1E3C00
1E3C00
1E3C00
3C1E00
3C1E00
3FFE00
7FFF00
7FFF00
780F00
F00780
F00780
F00780
F00780
F00780
000000
000000
ENDCHAR
STARTCHAR 259
ENCODING 259
SWIDTH 520 0 
DWIDTH 14 0
BBX 14 30 0 -3
BITMAP
0000
0000
0000
0000
0000
3060
38E0
1FC0
0F80
0000
0000
1FE0
7FF8
FFFC
F87C
F03C
003C
1FBC
7FFC
7FFC
F87C
F03C
F03C
F03C
F87C
7FFC
7FFC
1FBC
0000
0000
ENDCHAR
STARTCHAR 260
ENCODING 260
SWIDTH 520 0 
DWIDTH 19 0
BBX 19 30 0 -3
BITMAP
000000
000000
03E000
03E000
07F000
07F000
07F000
0F7800
0F7800
0F7800
1E3C00
1E3C00
1E3C00
3C1E00
3C1E00
3FFE00
7FFF00
7FFF00
780F00
F00780
F00780
F00780
F00780
F00780
000E00
000E00
000F00
000FE0
0003E0
000000
ENDCHAR
STARTCHAR 261
ENCODING 261
SWIDTH 520 0 
DWIDTH 17 0
BBX 17 30 0 -3
BITMAP
000000
000000
000000
000000
000000
000000
000000
000000
1FE000
7FF800
FFFC00
F87C00
F03C00
003C00
1FBC00
7FFC00
7FFC00
F87C00
F03C00
F03C00
F03C00
F87C00
7FFC00
7FFC00
1FBC00
003800
003800
003C00
003F80
000F80
ENDCHAR
STARTCHAR 262
ENCODING 262
SWIDTH 520 0 
DWIDTH 17 0
BBX 17 30 0 -3
BITMAP
01F000
01E000
03C000
038000
070000
000000
1FFC00
7FFF00
7FFF00
F80F80
F00780
F00780
F00000
F00000
F00000
F00000
F00000
F00000
F00000
F00000
F00000
F00000
F00780
F00780
F80F80
7FFF00
7FFF00
1FFC00
000000
000000
ENDCHAR
STARTCHAR 263
ENCODING 263
SWIDTH 520 0 
DWIDTH 14 0
BBX 14 30 0 -3
BITMAP
0000
0000
0000
0000
01F0
01E0
03C0
0380
0700
0000
0000
1FE0
7FF8
7FF8
F87C
F03C
F03C
F000
F000
F000
F000
F000
F03C
F03C
F87C
7FF8
7FF8
1FE0
0000
0000
ENDCHAR
STARTCHAR 268
ENCODING 268
SWIDTH 520 0 
DWIDTH 17 0
BBX 17 30 0 -3
BITMAP
000000
0E3800
077000
03E000
03E000
000000
1FFC00
7FFF00
7FFF00
F80F80
F00780
F00780
F00000
F00000
F00000
F00000
F00000
F00000
F00000
F00000
F00000
F00000
F00780
F00780
F80F80
7FFF00
7FFF00
1FFC00
000000
000000
ENDCHAR
STARTCHAR 269
ENCODING 269
SWIDTH 520 0 
DWIDTH 14 0
BBX 14 30 0 -3
BITMAP
0000
0000
0000
0000
0000
38E0
1DC0
0F80
0F80
0000
0000
1FE0
7FF8
7FF8
F87C
F03C
F03C
F000
F000
F000
F000
F000
F03C
F03C
F87C
7FF8
7FF8
1FE0
0000
0000
ENDCHAR
STARTCHAR 272
ENCODING 272
SWIDTH 520 0 
DWIDTH 19 0
BBX 19 30 0 -3
BITMAP
000000
000000
000000
000000
000000
000000
3FFE00
3FFF80
3FFFC0
3C07C0
3C03E0
3C03E0
3C01E0
3C01E0
3C01E0
FFE1E0
FFE1E0
FFE1E0
3C01E0
3C01E0
3C01E0
3C01E0
3C03E0
3C03E0
3C07C0
3FFFC0
3FFF80
3FFE00
000000
000000
ENDCHAR
STARTCHAR 273
ENCODING 273
SWIDTH 520 0 
DWIDTH 16 0
BBX 16 30 0 -3
BITMAP
0000
0000
0000
0000
0000
003C
003C
07FF
07FF
07FF
003C
1FBC
7FFC
7FFC
F87C
F03C
F03C
F03C
F03C
F03C
F03C
F03C
F03C
F03C
F87C
7FFC
7FFC
1FBC
0000
0000
ENDCHAR
STARTCHAR 280
ENCODING 280
SWIDTH 520 0 
DWIDTH 17 0
BBX 17 30 0 -3
BITMAP
000000
000000
FFFF80
FFFF80
FFFF80
F00000
F00000
F00000
F00000
F00000
F00000
FFFF80
FFFF80
FFFF80
F00000
F00000
F00000
F00000
F00000
F00000
F00000
FFFF80
FFFF80
FFFF80
003800
003800
003800
003C00
003F80
001F80
ENDCHAR
STARTCHAR 281
ENCODING 281
SWIDTH 520 0 
DWIDTH 14 0
BBX 14 30 0 -3
BITMAP
0000
0000
0000
0000
0000
0000
0000
1FE0
7FF8
7FF8
F87C
F03C
F03C
FFFC
FFFC
FFFC
F000
F000
F03C
F03C
F87C
7FF8
7FF8
1FE0
0700
0700
0700
0780
07F0
01F0
ENDCHAR
STARTCHAR 282
ENCODING 282
SWIDTH 520 0 
DWIDTH 17 0
BBX 17 30 0 -3
BITMAP
000000
0E3800
077000
03E000
03E000
000000
FFFF80
FFFF80
FFFF80
F00000
F00000
F00000
F00000
F00000
F00000
FFFF80
FFFF80
FFFF80
F00000
F00000
F00000
F00000
F00000
F00000
F00000
FFFF80
FFFF80
FFFF80
000000
000000
ENDCHAR
STARTCHAR 283
ENCODING 283
SWIDTH 520 0 
DWIDTH 14 0
BBX 14 30 0 -3
BITMAP
0000
0000
0000
0000
0000
38E0
1DC0
0F80
0F80
0000
0000
1FE0
7FF8
7FF8
F87C
F03C
F03C
FFFC
FFFC
FFFC
F000
F000
F03C
F03C
F87C
7FF8
7FF8
1FE0
0000
0000
ENDCHAR
STARTCHAR 286
ENCODING 286
SWIDTH 520 0 
DWIDTH 17 0
BBX 17 30 0 -3
BITMAP
000000
0C1800
0E3800
07F000
03E000
000000
1FFC00
7FFF00
7FFF00
F80F80
F00780
F00780
F00000
F00000
F00000
F00000
F1FF80
F1FF80
F1FF80
F00780
F00780
F00780
F00780
F00780
F80F80
7FFF00
7FFF00
1FFC00
000000
000000
ENDCHAR
STARTCHAR 287
ENCODING 287
SWIDTH 520 0 
DWIDTH 14 0
BBX 14 30 0 -3
BITMAP
0000
3060
38E0
1FC0
0F80
0000
0000
1FBC
7FFC
7FFC
F87C
F03C
F03C
F03C
F03C
F03C
F03C
F03C
F03C
F03C
F87C
7FFC
7FFC
1FBC
003C
F03C
F87C
7FF8
7FF8
1FE0
ENDCHAR
STARTCHAR 298
ENCODING 298
SWIDTH 520 0 
DWIDTH 10 0
BBX 10 30 0 -3
BITMAP
0000
0000
FFC0
FFC0
0000
0000
1E00
1E00
1E00
1E00
1E00
1E00
1E00
1E00
1E00
1E00
1E00
1E00
1E00
1E00
1E00
1E00
1E00
1E00
1E00
1E00
1E00
1E00
0000
0000
ENDCHAR
STARTCHAR 299
ENCODING 299
SWIDTH 520 0 
DWIDTH 10 0
BBX 10 30 0 -3
BITMAP
0000
0000
0000
0000
0000
0000
0000
0000
FFC0
FFC0
0000
0000
1E00
1E00
1E00
1E00
1E00
1E00
1E00
1E00
1E00
1E00
1E00
1E00
1E00
1E00
1E00
1E00
0000
0000
ENDCHAR
STARTCHAR 304
ENCODING 304
SWIDTH 520 0 
DWIDTH 5 0
BBX 5 30 0 -3
BITMAP
00
F0
F0
F0
F0
00
F0
F0
F0
F0
F0
F0
F0
F0
F0
F0
F0
F0
F0
F0
F0
F0
F0
F0
F0
F0
F0
F0
00
00
ENDCHAR
STARTCHAR 305
ENCODING 305
SWIDTH 520 0 
DWIDTH 5 0
BBX 5 30 0 -3
BITMAP
00
00
00
00
00
00
00
00
00
00
00
00
F0
F0
F0
F0
F0
F0
F0
F0
F0
F0
F0
F0
F0
F0
F0
F0
00
00
ENDCHAR
STARTCHAR 321
ENCODING 321
SWIDTH 520 0 
DWIDTH 19 0
BBX 19 30 0 -3
BITMAP
000000
000000
000000
000000
000000
000000
1E0000
1E0000
1E0000
1E1800
1E3800
1E7000
1EE000
1FC000
1F8000
1F0000
1E0000
1E0000
3E0000
7E0000
FE0000
DE0000
1E0000
1E0000
1E0000
1FFFE0
1FFFE0
1FFFE0
000000
000000
ENDCHAR
STARTCHAR 322
ENCODING 322
SWIDTH 520 0 
DWIDTH 11 0
BBX 11 30 0 -3
BITMAP
0000
0000
0000
0000
0000
0000
1E00
1E00
1E00
1E00
1E00
1E60
1EE0
1FC0
1F80
1F00
1E00
1E00
3E00
7E00
FE00
DE00
1E00
1E00
1E00
1E00
1E00
1E00
0000
0000
ENDCHAR
STARTCHAR 323
ENCODING 323
SWIDTH 520 0 
DWIDTH 17 0
BBX 17 30 0 -3
BITMAP
00F800
00F000
01E000
01C000
038000
000000
F80780
F80780
FC0780
FC0780
FE0780
FE0780
FF0780
FF0780
F78780
F78780
F3C780
F3C780
F1C780
F1E780
F0E780
F0F780
F07780
F07F80
F03F80
F03F80
F01F80
F01F80
000000
000000
ENDCHAR
STARTCHAR 324
ENCODING 324
SWIDTH 520 0 
DWIDTH 14 0
BBX 14 30 0 -3
BITMAP
0000
0000
0000
0000
03E0
03C0
0780
0700
0E00
0000
0000
F3F0
F7F8
FFFC
FC7C
F83C
F03C
F03C
F03C
F03C
F03C
F03C
F03C
F03C
F03C
F03C
F03C
F03C
0000
0000
ENDCHAR
STARTCHAR 336
ENCODING 336
SWIDTH 520 0 
DWIDTH 17 0
BBX 17 30 0 -3
BITMAP
03DE00
039C00
07BC00
073800
0E7000
000000
1FFC00
7FFF00
7FFF00
F80F80
F00780
F00780
F00780
F00780
F00780
F00780
F00780
F00780
F00780
F00780
F00780
F00780
F00780
F00780
F80F80
7FFF00
7FFF00
1FFC00
000000
000000
ENDCHAR
STARTCHAR 337
ENCODING 337
SWIDTH 520 0 
DWIDTH 14 0
BBX 14 30 0 -3
BITMAP
0000
0000
0000
0000
0F78
0E70
1EF0
1CE0
39C0
0000
0000
1FE0
7FF8
7FF8
F87C
F03C
F03C
F03C
F03C
F03C
F03C
F03C
F03C
F03C
F87C
7FF8
7FF8
1FE0
0000
0000
ENDCHAR
STARTCHAR 344
ENCODING 344
SWIDTH 520 0 
DWIDTH 18 0
BBX 18 30 0 -3
BITMAP
000000
38E000
1DC000
0F8000
0F8000
000000
FFE000
FFF800
FFFC00
F07C00
F03E00
F01E00
F01E00
F01E00
F03E00
F07C00
FFFC00
FFF800
FFE000
F3E000
F1F000
F0F800
F07C00
F03E00
F01F00
F00F80
F007C0
F003C0
000000
000000
ENDCHAR
STARTCHAR 345
ENCODING 345
SWIDTH 520 0 
DWIDTH 12 0
BBX 12 30 0 -3
BITMAP
0000
0000
0000
0000
0000
71C0
3B80
1F00
1F00
0000
0000
F3C0
F7E0
FFF0
FDF0
F8F0
F0F0
F0F0
F000
F000
F000
F000
F000
F000
F000
F000
F000
F000
0000
0000
ENDCHAR
STARTCHAR 346
ENCODING 346
SWIDTH 520 0 
DWIDTH 17 0
BBX 17 30 0 -3
BITMAP
01F000
01E000
03C000
038000
070000
000000
1FFC00
7FFF00
7FFF00
F80F80
F00780
F00780
F00780
F80780
7E0000
7F8000
1FE000
07F800
01FE00
007F00
001F00
F00F80
F00780
F00780
F80F80
7FFF00
7FFF00
1FFC00
000000
000000
ENDCHAR
STARTCHAR 347
ENCODING 347
SWIDTH 520 0 
DWIDTH 14 0
BBX 14 30 0 -3
BITMAP
0000
0000
0000
0000
03E0
03C0
0780
0700
0E00
0000
0000
1FE0
7FF8
7FF8
F87C
F03C
F03C
7C00
7F80
1FE0
07F8
00F8
F03C
F03C
F87C
7FF8
7FF8
1FE0
0000
0000
ENDCHAR
STARTCHAR 350
ENCODING 350
SWIDTH 520 0 
DWIDTH 17 0
BBX 17 30 0 -3
BITMAP
000000
000000
1FFC00
7FFF00
7FFF00
F80F80
F00780
F00780
F00780
F80780
7E0000
7F8000
1FE000
07F800
01FE00
007F00
001F00
F00F80
F00780
F00780
F80F80
7FFF00
7FFF00
1FFC00
07E000
07F000
007000
007000
0FE000
0FC000
ENDCHAR
STARTCHAR 351
ENCODING 351
SWIDTH 520 0 
DWIDTH 14 0
BBX 14 30 0 -3
BITMAP
0000
0000
0000
0000
0000
0000
0000
1FE0
7FF8
7FF8
F87C
F03C
F03C
7C00
7F80
1FE0
07F8
00F8
F03C
F03C
F87C
7FF8
7FF8
1FE0
0FC0
0FE0
00E0
00E0
1FC0
1F80
ENDCHAR
STARTCHAR 352
ENCODING 352
SWIDTH 520 0 
DWIDTH 17 0
BBX 17 30 0 -3
BITMAP
000000
0E3800
077000
03E000
03E000
000000
1FFC00
7FFF00
7FFF00
F80F80
F00780
F00780
F00780
F80780
7E0000
7F8000
1FE000
07F800
01FE00
007F00
001F00
F00F80
F00780
F00780
F80F80
7FFF00
7FFF00
1FFC00
000000
000000
ENDCHAR
STARTCHAR 353
ENCODING 353
SWIDTH 520 0 
DWIDTH 14 0
BBX 14 30 0 -3
BITMAP
0000
0000
0000
0000
0000
38E0
1DC0
0F80
0F80
0000
0000
1FE0
7FF8
7FF8
F87C
F03C
F03C
7C00
7F80
1FE0
07F8
00F8
F03C
F03C
F87C
7FF8
7FF8
1FE0
0000
0000
ENDCHAR
STARTCHAR 354
ENCODING 354
SWIDTH 520 0 
DWIDTH 18 0
BBX 18 30 0 -3
BITMAP
FFFFC0
FFFFC0
FFFFC0
01E000
01E000
01E000
01E000
01E000
01E000
01E000
01E000
01E000
01E000
01E000
01E000
01E000
01E000
01E000
01E000
01E000
01E000
01E000
000000
01E000
01E000
01E000
01E000
006000
00E000
01C000
ENDCHAR
STARTCHAR 355
ENCODING 355
SWIDTH 520 0 
DWIDTH 11 0
BBX 11 30 0 -3
BITMAP
3C00
3C00
3C00
3C00
3C00
3C00
FFC0
FFC0
FFC0
3C00
3C00
3C00
3C00
3C00
3C00
3C00
3C00
3CE0
3CE0
3FE0
3FE0
1FC0
0000
0F00
0F00
0F00
0F00
0300
0700
0E00
ENDCHAR
STARTCHAR 357
ENCODING 357
SWIDTH 520 0 
DWIDTH 15 0
BBX 15 30 0 -3
BITMAP
0000
0000
0000
0000
0000
0000
3C1E
3C1E
3C1E
3C1E
3C06
3C0E
FFDC
FFC8
FFC0
3C00
3C00
3C00
3C00
3C00
3C00
3C00
3C00
3CE0
3CE0
3FE0
3FE0
1FC0
0000
0000
ENDCHAR
STARTCHAR 366
ENCODING 366
SWIDTH 520 0 
DWIDTH 17 0
BBX 17 30 0 -3
BITMAP
03C000
07E000
066000
066000
07E000
03C000
F00780
F00780
F00780
F00780
F00780
F00780
F00780
F00780
F00780
F00780
F00780
F00780
F00780
F00780
F00780
F00780
F00780
F00780
F80F80
7FFF00
7FFF00
1FFC00
000000
000000
ENDCHAR
STARTCHAR 367
ENCODING 367
SWIDTH 520 0 
DWIDTH 14 0
BBX 14 30 0 -3
BITMAP
0000
0000
0000
0780
0FC0
0CC0
0CC0
0FC0
0780
0000
0000
F03C
F03C
F03C
F03C
F03C
F03C
F03C
F03C
F03C
F03C
F03C
F03C
F07C
F8FC
FFFC
7FBC
3F3C
0000
0000
ENDCHAR
STARTCHAR 368
ENCODING 368
SWIDTH 520 0 
DWIDTH 17 0
BBX 17 30 0 -3
BITMAP
03DE00
039C00
07BC00
073800
0E7000
000000
F00780
F00780
F00780
F00780
F00780
F00780
F00780
F00780
F00780
F00780
F00780
F00780
F00780
F00780
F00780
F00780
F00780
F00780
F80F80
7FFF00
7FFF00
1FFC00
000000
000000
ENDCHAR
STARTCHAR 369
ENCODING 369
SWIDTH 520 0 
DWIDTH 14 0
BBX 14 30 0 -3
BITMAP
0000
0000
0000
0000
0F78
0E70
1EF0
1CE0
39C0
0000
0000
F03C
F03C
F03C
F03C
F03C
F03C
F03C
F03C
F03C
F03C
F03C
F03C
F07C
F8FC
FFFC
7FBC
3F3C
0000
0000
ENDCHAR
STARTCHAR 377
ENCODING 377
SWIDTH 520 0 
DWIDTH 17 0
BBX 17 30 0 -3
BITMAP
00F800
00F000
01E000
01C000
038000
000000
FFFF80
FFFF80
FFFF80
000F00
001E00
003C00
007800
007800
00F000
01E000
01E000
03C000
078000
078000
0F0000
1E0000
1E0000
3C0000
780000
FFFF80
FFFF80
FFFF80
000000
000000
ENDCHAR
STARTCHAR 378
ENCODING 378
SWIDTH 520 0 
DWIDTH 14 0
BBX 14 30 0 -3
BITMAP
0000
0000
0000
0000
03E0
03C0
0780
0700
0E00
0000
0000
FFFC
FFFC
FFFC
0078
00F0
01E0
01E0
03C0
0780
0F00
1E00
1E00
3C00
7800
FFFC
FFFC
FFFC
0000
0000
ENDCHAR
STARTCHAR 379
ENCODING 379
SWIDTH 520 0 
DWIDTH 17 0
BBX 17 30 0 -3
BITMAP
000000
03C000
03C000
03C000
03C000
000000
FFFF80
FFFF80
FFFF80
000F00
001E00
003C00
007800
007800
00F000
01E000
01E000
03C000
078000
078000
0F0000
1E0000
1E0000
3C0000
780000
FFFF80
FFFF80
FFFF80
000000
000000
ENDCHAR
STARTCHAR 380
ENCODING 380
SWIDTH 520 0 
DWIDTH 14 0
BBX 14 30 0 -3
BITMAP
0000
0000
0000
0000
0000
0780
0780
0780
0780
0000
0000
FFFC
FFFC
FFFC
0078
00F0
01E0
01E0
03C0
0780
0F00
1E00
1E00
3C00
7800
FFFC
FFFC
FFFC
0000
0000
ENDCHAR
STARTCHAR 381
ENCODING 381
SWIDTH 520 0 
DWIDTH 17 0
BBX 17 30 0 -3
BITMAP
000000
0E3800
077000
03E000
03E000
000000
FFFF80
FFFF80
FFFF80
000F00
001E00
003C00
007800
007800
00F000
01E000
01E000
03C000
078000
078000
0F0000
1E0000
1E0000
3C0000
780000
FFFF80
FFFF80
FFFF80
000000
000000
ENDCHAR
STARTCHAR 382
ENCODING 382
SWIDTH 520 0 
DWIDTH 14 0
BBX 14 30 0 -3
BITMAP
0000
0000
0000
0000
0000
38E0
1DC0
0F80
0F80
0000
0000
FFFC
FFFC
FFFC
0078
00F0
01E0
01E0
03C0
0780
0F00
1E00
1E00
3C00
7800
FFFC
FFFC
FFFC
0000
0000
ENDCHAR
STARTCHAR 385
ENCODING 385
SWIDTH 520 0 
DWIDTH 30 0
BBX 30 30 0 -3
BITMAP
00000000
3FFFF000
7FFFFE00
E07FFF80
E07807C0
F07803E0
707801E0
007801E0
007801E0
007801E0
007803C0
007803C0
00780F80
007FFF00
007FFF00
007FFFC0
007803E0
007801E0
007801F0
007801F0
007801F0
007801F0
007801F0
007801E0
007803E0
00780FC0
007FFF80
07FFFE00
07FFF000
00000000
ENDCHAR
STARTCHAR 394
ENCODING 394
SWIDTH 520 0 
DWIDTH 30 0
BBX 30 30 0 -3
BITMAP
00000000
00000000
7FFFE000
FFFFFC00
E1E0FF00
E1E01F80
E1E007C0
C1E003E0
01E001E0
01E001F0
01E000F0
01E000F0
01E000F0
01E000F0
01E000F0
01E000F0
01E000F0
01E000F0
01E000F0
01E000F0
01E001F0
01E001E0
01E003E0
01E007C0
01E00F80
01E07F00
07FFFC00
1FFFE000
00000000
00000000
ENDCHAR
STARTCHAR 399
ENCODING 399
SWIDTH 520 0 
DWIDTH 30 0
BBX 30 30 0 -3
BITMAP
00000000
00000000
007FF000
01FFFE00
07FFFF00
0FC01F80
1F0007C0
1C0003C0
180003E0
100001E0
000000E0
000000F0
000000F0
1FFFFFF0
1FFFFFF0
1FFFFFF0
1E0000F0
1E0000F0
1E0000F0
1E0001F0
1E0001E0
0F0001E0
0F0003C0
078007C0
07C00F80
03F03F00
01FFFE00
00FFF800
003FE000
00000000
ENDCHAR
STARTCHAR 408
ENCODING 408
SWIDTH 520 0 
DWIDTH 30 0
BBX 30 30 0 -3
BITMAP
00000000
00000000
7FF007F0
3FC01FF8
1F803E78
0F007878
0F00F078
0F01E030
0F03C000
0F078000
0F0F0000
0F1E0000
0F3C0000
0FF80000
0FF80000
0FFC0000
0F3E0000
0F1F0000
0F0F8000
0F07C000
0F03E000
0F01F000
0F00F800
0F007C00
0F003E00
0F001F00
1F800F80
3FC00FE0
7FF0FFF8
00000000
ENDCHAR
STARTCHAR 409
ENCODING 409
SWIDTH 520 0 
DWIDTH 30 0
BBX 30 30 0 -3
BITMAP
00000000
001FC000
007FE000
00F0F000
00F0F000
00F0F000
00F06000
00F00000
00F00000
00F00000
00F0FF00
00F07C00
00F07000
00F0E000
00F1C000
00F38000
00F70000
00FE0000
00FE0000
00FF0000
00FF8000
00F78000
00F3C000
00F1E000
00F0F000
00F07800
00F03C00
00F03E00
03FCFF80
00000000
ENDCHAR
STARTCHAR 416
ENCODING 416
SWIDTH 520 0 
DWIDTH 22 0
BBX 22 30 0 -3
BITMAP
000000
000000
000000
000000
000000
000000
1FFC3C
7FFF3C
7FFF3C
F80FBC
F0078C
F0078C
F00798
F007F8
F007E0
F00780
F00780
F00780
F00780
F00780
F00780
F00780
F00780
F00780
F80F80
7FFF00
7FFF00
1FFC00
000000
000000
ENDCHAR
STARTCHAR 417
ENCODING 417
SWIDTH 520 0 
DWIDTH 19 0
BBX 19 30 0 -3
BITMAP
000000
000000
000000
000000
000000
000000
000000
000000
000000
000000
000000
1FE000
7FF9E0
7FF9E0
F87DE0
F03DE0
F03C60
F03C60
F03DC0
F03F80
F03F00
F03C00
F03C00
F03C00
F87C00
7FF800
7FF800
1FE000
000000
000000
ENDCHAR
STARTCHAR 431
ENCODING 431
SWIDTH 520 0 
DWIDTH 23 0
BBX 23 30 0 -3
BITMAP
000000
000000
000000
000000
000000
000000
F0079E
F0079E
F0079E
F0079E
F00786
F00786
F0078E
F0079C
F007F8
F007E0
F00780
F00780
F00780
F00780
F00780
F00780
F00780
F00780
F80F80
7FFF00
7FFF00
1FFC00
000000
000000
ENDCHAR
STARTCHAR 432
ENCODING 432
SWIDTH 520 0 
DWIDTH 20 0
BBX 20 30 0 -3
BITMAP
000000
000000
000000
000000
000000
000000
000000
000000
000000
000000
000000
F03C00
F03CF0
F03CF0
F03CF0
F03CF0
F03C30
F03C30
F03C70
F03CE0
F03FC0
F03F00
F03C00
F07C00
F8FC00
FFFC00
7FBC00
3F3C00
000000
000000
ENDCHAR
STARTCHAR 435
ENCODING 435
SWIDTH 520 0 
DWIDTH 30 0
BBX 30 30 0 -3
BITMAP
00000000
FF800038
FF80007C
3E0000FC
1F0001FC
0F800398
07C00700
03E00E00
01F01C00
00F83800
007C7000
003EE000
001FC000
000F8000
00078000
00078000
00078000
00078000
00078000
00078000
00078000
00078000
00078000
00078000
00078000
00078000
000FC000
007FF800
007FF800
00000000
ENDCHAR
STARTCHAR 436
ENCODING 436
SWIDTH 520 0 
DWIDTH 30 0
BBX 30 30 0 -3
BITMAP
000003E0
000007E0
000007E0
00000E00
00001C00
3FE01C00
3FE03800
0F803000
0F807000
07807000
07C06000
03C0E000
03E0C000
01E1C000
01F1C000
00F18000
00FB8000
007B0000
007F0000
003E0000
003E0000
001C0000
001C0000
001C0000
00180000
00380000
0FF00000
0FF00000
0FE00000
0FC00000
ENDCHAR
STARTCHAR 595
ENCODING 595
SWIDTH 520 0 
DWIDTH 30 0
BBX 30 30 0 -3
BITMAP
00000000
001FE000
003FF000
007FF800
007C3800
00781800
00781800
00780000
00780000
00780000
007BF000
007FFC00
007FFC00
007C3E00
00781E00
00780F00
00780F00
00780700
00780700
00780700
00780700
00780F00
00780F00
00781E00
007C3E00
007FFC00
003FFC00
000FF000
00000000
00000000
ENDCHAR
STARTCHAR 599
ENCODING 599
SWIDTH 520 0 
DWIDTH 30 0
BBX 30 30 0 -3
BITMAP
00000000
00001F80
00003FC0
00007FC0
00007CC0
00007840
00007800
00007800
00007800
00007800
003F7800
00FFF800
00FFF800
01F0F800
01E07800
01C07800
01C07800
01C07800
01C07800
01C07800
01C07800
01C07800
01C07800
01E07800
01F0FE00
00FFFC00
00FFF800
003F7000
00000000
00000000
ENDCHAR
STARTCHAR 601
ENCODING 601
SWIDTH 520 0 
DWIDTH 30 0
BBX 30 30 0 -3
BITMAP
00000000
00000000
00000000
00000000
00000000
00000000
00000000
00000000
001FC000
007FF000
00FFF800
01FFFC00
03C07E00
03803E00
03003F00
02001F00
00001F00
00000F00
00000F00
01FFFF00
01FFFF00
01FFFF00
01F01E00
00F01E00
00F83C00
007C7800
003FF000
000FC000
00000000
00000000
ENDCHAR
STARTCHAR 711
ENCODING 711
SWIDTH 520 0 
DWIDTH 9 0
BBX 9 30 0 -3
BITMAP
0000
E380
7700
3E00
3E00
0000
0000
0000
0000
0000
0000
0000
0000
0000
0000
0000
0000
0000
0000
0000
0000
0000
0000
0000
0000
0000
0000
0000
0000
0000
ENDCHAR
STARTCHAR 768
ENCODING 768
SWIDTH 520 0 
DWIDTH 7 0
BBX 7 30 0 -3
BITMAP
00
F8
78
3C
1C
0E
00
00
00
00
00
00
00
00
00
00
00
00
00
00
00
00
00
00
00
00
00
00
00
00
ENDCHAR
STARTCHAR 769
ENCODING 769
SWIDTH 520 0 
DWIDTH 7 0
BBX 7 30 0 -3
BITMAP
00
3E
3C
78
70
E0
00
00
00
00
00
00
00
00
00
00
00
00
00
00
00
00
00
00
00
00
00
00
00
00
ENDCHAR
STARTCHAR 771
ENCODING 771
SWIDTH 520 0 
DWIDTH 10 0
BBX 10 30 0 -3
BITMAP
0000
78C0
FFC0
C780
0000
0000
0000
0000
0000
0000
0000
0000
0000
0000
0000
0000
0000
0000
0000
0000
0000
0000
0000
0000
0000
0000
0000
0000
0000
0000
ENDCHAR
STARTCHAR 777
ENCODING 777
SWIDTH 520 0 
DWIDTH 7 0
BBX 7 30 0 -3
BITMAP
00
3C
3E
0E
0E
FC
F8
00
00
00
00
00
00
00
00
00
00
00
00
00
00
00
00
00
00
00
00
00
00
00
ENDCHAR
STARTCHAR 803
ENCODING 803
SWIDTH 520 0 
DWIDTH 5 0
BBX 5 30 0 -3
BITMAP
00
F0
F0
F0
F0
00
00
00
00
00
00
00
00
00
00
00
00
00
00
00
00
00
00
00
00
00
00
00
00
00
ENDCHAR
STARTCHAR 7778
ENCODING 7778
SWIDTH 520 0 
DWIDTH 30 0
BBX 30 30 0 -3
BITMAP
003FE000
00FFF000
01E1F800
03807800
07803800
07803800
07C01800
07C01800
07E00000
03F80000
01FE0000
007F8000
001FE000
0003F000
0001F800
0800F800
0C007800
0C007800
0E007800
0F007800
07007800
07C1F000
03FFE000
00FF8000
00000000
001C0000
003E0000
003E0000
003E0000
001C0000
ENDCHAR
STARTCHAR 7779
ENCODING 7779
SWIDTH 520 0 
DWIDTH 30 0
BBX 30 30 0 -3
BITMAP
00000400
000FFC00
003FFC00
007FFC00
00F80C00
00F00400
00F00000
00F00000
00F80000
007C0000
007FC000
003FF000
000FFC00
0003FE00
00003E00
00001E00
00801E00
00C03E00
00F0FC00
00FFFC00
00FFF000
00FFC000
00C00000
00000000
00000000
00030000
00078000
00078000
00030000
00000000
ENDCHAR
STARTCHAR 7864
ENCODING 7864
SWIDTH 520 0 
DWIDTH 30 0
BBX 30 30 0 -3
BITMAP
07FFFF00
07FFFF00
00F00F00
00F00300
00F00100
00F00100
00F00000
00F00000
00F00400
00F00C00
00FFFC00
00FFFC00
00FFFC00
00F00C00
00F00C00
00F00400
00F00000
00F00000
00F00080
00F00080
00F00380
00F00780
01FFFF80
07FFFF80
00000000
00038000
0007C000
0007C000
0007C000
00038000
ENDCHAR
STARTCHAR 7865
ENCODING 7865
SWIDTH 520 0 
DWIDTH 30 0
BBX 30 30 0 -3
BITMAP
00000000
000FC000
003FF000
007FF800
00F07C00
01E03C00
01E01E00
03C01E00
03C01E00
03FFFE00
03FFFE00
03FFFE00
03C00000
03C00000
03C00000
03E00000
01E00000
01F00600
00FC1E00
007FFE00
003FFC00
000FF000
00000000
00000000
00000000
00030000
00078000
00078000
00030000
00000000
ENDCHAR
STARTCHAR 7882
ENCODING 7882
SWIDTH 520 0 
DWIDTH 4 0
BBX 4 30 0 -3
BITMAP
00
00
00
00
F0
F0
F0
F0
F0
F0
F0
F0
F0
F0
F0
F0
F0
F0
F0
F0
F0
F0
00
00
F0
F0
F0
F0
00
00
ENDCHAR
STARTCHAR 7883
ENCODING 7883
SWIDTH 520 0 
DWIDTH 4 0
BBX 4 30 0 -3
BITMAP
00
00
00
00
F0
F0
F0
F0
00
00
F0
F0
F0
F0
F0
F0
F0
F0
F0
F0
F0
F0
00
00
F0
F0
F0
F0
00
00
ENDCHAR
STARTCHAR 7884
ENCODING 7884
SWIDTH 520 0 
DWIDTH 30 0
BBX 30 30 0 -3
BITMAP
003FF000
00FFFC00
01E01E00
03C00F00
07800780
0F8007C0
0F0003C0
1F0003E0
1F0003E0
1F0003E0
1F0003E0
1F0003E0
1F0003E0
1F0003E0
1F0003E0
1F0003E0
0F0003C0
0F8007C0
07800780
03C00F00
01E01E00
007FFC00
003FF000
000FC000
00000000
00038000
0007C000
0007C000
0007C000
00038000
ENDCHAR
STARTCHAR 7885
ENCODING 7885
SWIDTH 520 0 
DWIDTH 30 0
BBX 30 30 0 -3
BITMAP
00000000
000FC000
003FF000
007FF800
00F87C00
01E01E00
01E01E00
03C01F00
03C00F00
03C00F00
03C00F00
03C00F00
03C00F00
03C00F00
03C00F00
03C00E00
01E01E00
01E01E00
00F87C00
007FF800
003FF000
000FE000
00000000
00000000
00000000
00030000
00078000
00078000
00030000
00000000
ENDCHAR
STARTCHAR 7908
ENCODING 7908
SWIDTH 520 0 
DWIDTH 17 0
BBX 17 30 0 -3
BITMAP
F00780
F00780
F00780
F00780
F00780
F00780
F00780
F00780
F00780
F00780
F00780
F00780
F00780
F00780
F00780
F00780
F00780
F00780
F80F80
7FFF00
7FFF00
1FFC00
000000
000000
01E000
01E000
01E000
01E000
000000
000000
ENDCHAR
STARTCHAR 7909
ENCODING 7909
SWIDTH 520 0 
DWIDTH 14 0
BBX 14 30 0 -3
BITMAP
0000
0000
0000
0000
0000
F03C
F03C
F03C
F03C
F03C
F03C
F03C
F03C
F03C
F03C
F03C
F03C
F07C
F8FC
FFFC
7FBC
3F3C
0000
0000
0780
0780
0780
0780
0000
0000
ENDCHAR
STARTCHAR 8364
ENCODING 8364
SWIDTH 520 0 
DWIDTH 18 0
BBX 18 30 0 -3
BITMAP
000000
007F00
01FFC0
07FFC0
0FFFC0
0FC1C0
1F0000
1E0000
3E0000
3C0000
FFFF80
FFFF80
3C0000
FFFF80
FFFF80
3C0000
3E0000
1E0000
1F0000
0FC1C0
0FFFC0
07FFC0
01FFC0
007F00
000000
000000
000000
000000
000000
000000
ENDCHAR
ENDFONT
